<mxfile host="app.diagrams.net" agent="Mozilla/5.0 (Macintosh; Intel Mac OS X 10_15_7) AppleWebKit/537.36 (KHTML, like Gecko) Chrome/130.0.0.0 Safari/537.36" version="24.8.6">
  <diagram name="第 1 页" id="kBt1hXOL5AL5PGD8V-su">
    <mxGraphModel dx="2746" dy="837" grid="1" gridSize="10" guides="1" tooltips="1" connect="1" arrows="1" fold="1" page="1" pageScale="1" pageWidth="827" pageHeight="1169" math="0" shadow="0">
      <root>
        <mxCell id="0" />
        <mxCell id="1" parent="0" />
        <mxCell id="BJJ_EfVTT5JSGECl1juC-1" value="" style="shape=image;verticalLabelPosition=bottom;labelBackgroundColor=default;verticalAlign=top;aspect=fixed;imageAspect=0;image=data:image/png,iVBORw0KGgoAAAANSUhEUgAABykAAAFBCAYAAADDi5P2AAAAAXNSR0IArs4c6QAAAERlWElmTU0AKgAAAAgAAYdpAAQAAAABAAAAGgAAAAAAA6ABAAMAAAABAAEAAKACAAQAAAABAAAHKaADAAQAAAABAAABQQAAAABDEGESAABAAElEQVR4AezdCZwcVb328TPJJDMJWQkhJGFNgAhECauIgOxcIhfuCyIXRDYBBQH1VS4ueEUFQUFFEFRExQUUEXyjiLKKbEbWoCwGSIBAEpKQhSRkT+at58z8i9M11et09/TyO36S7q7l1KlvdXBqnjrntHRExVEQQAABBBBAAAEEEEAAAQQQQAABBBBAAAEEEEAAAQQQQACBKgn0qdJxOAwCCCCAAAIIIIAAAggggAACCCCAAAIIIIAAAggggAACCCDgBQgp+SIggAACCCCAAAIIIIAAAggggAACCCCAAAIIIIAAAggggEBVBQgpq8rNwRBAAAEEEEAAAQQQQAABBBBAAAEEEEAAAQQQQAABBBBAgJCS7wACCCCAAAIIIIAAAggggAACCCCAAAIIIIAAAggggAACCFRVgJCyqtwcDAEEEEAAAQQQQAABBBBAAAEEEEAAAQQQQAABBBBAAAEECCn5DiCAAAIIIIAAAggggAACCCCAAAIIIIAAAggggAACCCCAQFUFCCmrys3BEEAAAQQQQAABBBBAAAEEEEAAAQQQQAABBBBAAAEEEECAkJLvAAIIIIAAAggggAACCCCAAAIIIIAAAggggAACCCCAAAIIVFWAkLKq3BwMAQQQQAABBBBAAAEEEEAAAQQQQAABBBBAAAEEEEAAAQQIKfkOIIAAAggggAACCCCAAAIIIIAAAggggAACCCCAAAIIIIBAVQUIKavKzcEQQAABBBBAAAEEEEAAAQQQQAABBBBAAAEEEEAAAQQQQICQku8AAggggAACCCCAAAIIIIAAAggggAACCCCAAAIIIIAAAghUVYCQsqrcHAwBBBBAAAEEEEAAAQQQQAABBBBAAAEEEEAAAQQQQAABBAgp+Q4ggAACCCCAAAIIIIAAAggggAACCCCAAAIIIIAAAggggEBVBQgpq8rNwRBAAAEEEEAAAQQQQAABBBBAAAEEEEAAAQQQQAABBBBAgJCS7wACCCCAAAIIIIAAAggggAACCCCAAAIIIIAAAggggAACCFRVgJCyqtwcDAEEEEAAAQQQQAABBBBAAAEEEEAAAQQQQAABBBBAAAEECCn5DiCAAAIIIIAAAggggAACCCCAAAIIIIAAAggggAACCCCAQFUFCCmrys3BEEAAAQQQQAABBBBAAAEEEEAAAQQQQAABBBBAAAEEEECAkJLvAAIIIIAAAggggAACCCCAAAIIIIAAAggggAACCCCAAAIIVFWAkLKq3BwMAQQQQAABBBBAAAEEEEAAAQQQQAABBBBAAAEEEEAAAQQIKfkOIIAAAggggAACCCCAAAIIIIAAAggggAACCCCAAAIIIIBAVQUIKavKzcEQQAABBBBAAAEEEEAAAQQQQAABBBBAAAEEEEAAAQQQQICQku8AAggggAACCCCAAAIIIIAAAggggAACCCCAAAIIIIAAAghUVYCQsqrcHAwBBBBAAAEEEEAAAQQQQAABBBBAAAEEEEAAAQQQQAABBAgp+Q4ggAACCCCAAAIIIIAAAggggAACCCCAAAIIIIAAAggggEBVBQgpq8rNwRBAAAEEEEAAAQQQQAABBBBAAAEEEEAAAQQQQAABBBBAgJCS7wACCCCAAAIIIIAAAggggAACCCCAAAIIIIAAAggggAACCFRVgJCyqtwcDAEEEEAAAQQQQAABBBBAAAEEEEAAAQQQQAABBBBAAAEECCn5DiCAAAIIIIAAAggggAACCCCAAAIIIIAAAggggAACCCCAQFUFCCmrys3BEEAAAQQQQAABBBBAAAEEEEAAAQQQQAABBBBAAAEEEECAkJLvAAIIIIAAAggggAACCCCAAAIIIIAAAggggAACCCCAAAIIVFWAkLKq3BwMAQQQQAABBBBAAAEEEEAAAQQQQAABBBBAAAEEEEAAAQQIKfkOIIAAAggggAACCCCAAAIIIIAAAggggAACCCCAAAIIIIBAVQUIKavKzcEQQAABBBBAAAEEEEAAAQQQQAABBBBAAAEEEEAAAQQQQICQku8AAggggAACCCCAAAIIIIAAAggggAACCCCAAAIIIIAAAghUVYCQsqrcHAwBBBBAAAEEEEAAAQQQQAABBBBAAAEEEEAAAQQQQAABBAgp+Q4ggAACCCCAAAIIIIAAAggggAACCCCAAAIIIIAAAggggEBVBQgpq8rNwRBAAAEEEEAAAQQQQAABBBBAAAEEEEAAAQQQQAABBBBAgJCS7wACCCCAAAIIIIAAAggggAACCCCAAAIIIIAAAggggAACCFRVgJCyqtwcDAEEEEAAAQQQQAABBBBAAAEEEEAAAQQQQAABBBBAAAEECCn5DiCAAAIIIIAAAggggAACCCCAAAIIIIAAAggggAACCCCAQFUFCCmrys3BEEAAAQQQQAABBBBAAAEEEEAAAQQQQAABBBBAAAEEEECAkJLvAAIIIIAAAggggAACCCCAAAIIIIAAAggggAACCCCAAAIIVFWAkLKq3BwMAQQQQAABBBBAAAEEEEAAAQQQQAABBBBAAAEEEEAAAQQIKfkOIIAAAggggAACCCCAAAIIIIAAAggggAACCCCAAAIIIIBAVQUIKavKzcEQQAABBBBAAAEEEEAAAQQQQAABBBBAAAEEEEAAAQQQQICQku8AAggggAACCCCAAAIIIIAAAggggAACCCCAAAIIIIAAAghUVYCQsqrcHAwBBBBAAAEEEEAAAQQQQAABBBBAAAEEEEAAAQQQQAABBAgp+Q4ggAACCCCAAAIIIIAAAggggAACCCCAAAIIIIAAAggggEBVBQgpq8rNwRBAAAEEEEAAAQQQQAABBBBAAAEEEEAAAQQQQAABBBBAgJCS7wACCCCAAAIIIIAAAggggAACCCCAAAIIIIAAAggggAACCFRVgJCyqtwcDAEEEEAAAQQQQAABBBBAAAEEEEAAAQQQQAABBBBAAAEECCn5DiBQsEBHwVuyIQIIIIAAAggggAACCCCAAAIIIIAAAggggAACCCCAQHaB1uyrerhm1b09rIDdEagtgTWrVri16zZ1G23y3tpqGK1BAAEEEEAAAQQQQAABBBBAAAEEEEAAAQQQQAABBOpMgJ6UdXbBaG7vCiyZ/YB7e8HU3m0ER0cAAQQQQAABBBBAAAEEEEAAAQQQQAABBBBAAAEE6lyAkLLOLyDNr7ZAh1syh6Cy2uocDwEEEEAAAQQQQAABBBBAAAEEEEAAAQQQQAABBBpLgJCysa4nZ1MlAR9UvkmPyipxcxgEEEAAAQQQQAABBBBAAAEEEEAAAQQQQAABBBBoMAFCyga7oJxO9QQ6h379e/UOyJEQQAABBBBAAAEEEEAAAQQQQAABBBBAAAEEEEAAgQYRIKRskAvJafSOwJI5D0ZzVD7SOwfnqAgggAACCCCAAAIIIIAAAggggAACCCCAAAIIIIBAnQoQUtbphaPZtSOwZM5Dbvn8h2unQbQEAQQQQAABBBBAAAEEEEAAAQQQQAABBBBAAAEEEKhxAULKGr9ANK8+BN6a+3AUVD5UH42llQgggAACCCCAAAIIIIAAAggggAACCCCAAAIIIIBALwsQUvbyBeDwjSPw1txHCCob53JyJggggAACCCCAAAIIIIAAAggggAACCCCAAAIIIFBBAULKCuJSdfMJdAaVDzbfiXPGCCCAAAIIIIAAAggggAACCCCAAAIIIIAAAggggEARAoSURWCxKQKFCLw19+9Rj0qCykKs2AYBBBBAAAEEEEAAAQQQQAABBBBAAAEEEEAAAQSaU4CQsjmvO2ddYYHOoPKBCh+F6hFAAAEEEEAAAQQQQAABBBBAAAEEEEAAAQQQQACB+hQgpKzP60ar60DgrblT3bJ5f6uDltJEBBBAAAEEEEAAAQQQQAABBBBAAAEEEEAAAQQQQKC6AoSU1fXmaE0msPSNf0RB5f1NdtacLgIIIIAAAggggAACCCCAAAIIIIAAAggggAACCCCQW6A192rWIoCACfRra3ejxk20j4W/dqxwHevfci19hxa+D1sigAACCCCAAAIIIIAAAggggAACCCCAAAIIIIAAAg0sQEjZwBeXUyuvQEtLH9far620SltaStuPvRBAAAEEEEAAAQQQQAABBBBAAAEEEEAAAQQQQACBBhRguNcGvKicEgIIIIAAAggggAACCCCAAAIIIIAAAggggAACCCCAAAK1LEBIWctXh7YhgAACCCCAAAIIIIAAAggggAACCCCAAAIIIIAAAggg0IAChJQNeFE5JQQQQAABBBBAAAEEEEAAAQQQQAABBBBAAAEEEEAAAQRqWaCpQsonnprpdnv//zi9Nmq5+gd/dief8X235K23/SlW85xXrVrrvnTRTf6P3lMQQAABBBBAAAEEEEAAAQQQQAABBBBAAAEEEEAAAQQQSBOomZDSAi6FiPZnyu2PpbW5bpap/Y0aiurcwjC0Ny6KAlkLnNUefaYggAACCCCAAAIIIIAAAggggAACCCCAAAIIIIAAAgjUvkBrLTTx5Vfmu3M/+xN32MGT3BMPfytu0k9/cZ/Tum223jRe1pM3u+0yLqP+ntSVb1/1ZLxtyj/8ZrdNmep22mEL197eL99uZV9fqXOe9dqb3dqq87vkohO6La/EAvm+OGOuO+Lw3Xz1as+WW2xSiUNRJwIIIIAAAggggAACCCCAAAIIIIAAAggggAACCCCAQJkFaqIn5T+fedWN2Hiw++gJ+2Wc3mknHVi2gDKj4ip8mDFznnvmuVlu770muKf/9aqb+8biKhy1eQ6xeHHncLbDh2/kh7ZVYPmeiVs1DwBnigACCCCAAAIIIIAAAggggAACCCCAAAIIIIAAAgjUsUBN9KRM65WXNLXelmecerBf9bVLb4k3ue77n3DqMWhFw34+/uQMH3pecOGv3MQdt3Tfu+JUp+DwzHN+6Gz7sE614YZf/dVXYdsPG7qRVelfVa9tM3qz4e7T53zQXfn9Pzm16agj9sjY9pGp091/HDLJnXvWZKc2KIhN9gjVUKXWHm0f1n31tz8Wbx+2UwfJde4ZjYg+hMcIjWy5bW8m9jk8Vy2z9dYWC10PmvzV2Le9rb/7+mWd1+XLnz827jmqXo+f+tzPfGhr9f/vF47NMLP2XHXFae6OO590f7l7mt9UhmFdyXbp+FYe/vu/na6L7FTUO/fE/97P/evZV319OuYH9t3Rt2X3XcdH1+Zw29X32NX2X73wOP9d0vDDdi6TD9vVnfe5n8bbmkW8gDcIIIAAAggggAACCCCAAAIIIIAAAggggAACCCCAAAJFCdRET0oN06leh7+86YG8jbeATsPC6s8pJx7gvnLxzT5kCndWfX/92zPu4XsvcT//8TkuGTiG26pO9XhUfffe8RW/6vLvTnEKqlRsvkwFn1qv7X710/N8ey2s8xt2/aUg7857prk9d9/ObTZqmFMgpqFfFdalFQWVdny1d+d3b+UuuuS33bYv9NzTjhEuU9Ans9/d+Dl/LjqfxUuWx+er+R2tPVqncM+MFbTefusXvLvCXHnk8pXFiadd5Y4+6r3xsXTcH//sntQ5JC+94vfu9FMO9ttqO/VC1bZWFCxam9QuvVdoqDBTdmpbGAZffuWU6Nh7+e2SQbLVmetVYemT0172++tY2b5vuepgHQIIIIAAAggggAACCCCAAAIIIIAAAggggAACCCCAQKZATYSUCo8U/qgn4W7v/x/f+y+zme980nZh2KRejAr1bv/zE+9sFL1TjzqFXYXMA6k6rZehwkwFauEQrc8+/5rviXfe2ZPjsFPb6XNaseFr1WtPRfMmLly0zPfkTNteYZsdX+09/zNH+c3+9uBzGZsXeu4ZOyU+qMeinNVjMAzzDj7gPbGVfK092l3noeF4dV7FFIW7199wj78+mm/Uio6r66YgVyFmWLTc2qVX7adwOBnwqufr5mNH+F1fn70wCoOHx+0P6wuvbbi80PcKYsNhiG0OzGItCj0e2yGAAAIIIIAAAggggAACCCCAAAIIIIAAAggggAACzSBQEyGloNVDTj3nFC6qZ+ERx1zaLcDSdup1GRaFegqo3pi3OO4JqPUK1TRfYSElWaeFX7avhmJVWDV+3Chb5F83Hj7ItzdcqGDu0cdf9EGn9d7UOSlIVT1pJXk8DZu6+diNXXIY3GQ7s5172jFsmQK9tHOx9clX6wmpnqnJ9iS3TX5WL1OFvepRmgyLbf7IRYuXZ+yWtEieszaW8fK3Vzr5q6hdadtpXbblWldI0XXQ9bCi75S+WxQEEEAAAQQQQAABBBBAAAEEEEAAAQQQQAABBBBAAIHSBWpiTkprvnrOabhOBWOaH/BDH7kingvRtsn2+vrsRW7V6jXdwrBs2+dbroBNAZr16kuGVdn2t2BOw4Ta8Ky2rcJK9cSzOm15ttdk8Jptu2LOvbMHYmbwlqw3nPdRw6hef+1Zfl7N5HaFfk4Gj+F+Ck3DXpvhOnuvXqiLF78dzylqy3/3+6n21r/KW71Sw562GRuU8UOxgW0ZD01VCCCAAAIIIIAAAggggAACCCCAAAIIIIAAAggggEDdC9RUSGmaCvE05+OnPvcz3/swX4il/QoNEe0Yxb4WGgRq2Fn1mlSv0LD3oIYr1flomNBCQ8psQ5gm217suec6FxsOVvM8mntyqNXk8fN9zhVE5gowk/WqPZoXUm28bcpU9+XPH+uDac0fqiFyredqcj8+I4AAAggggAACCCCAAAIIIIAAAggggAACCCCAAAII1JZAzQz3mmSxIU+Ty5M92BSgac7CtCFFk/uW+llDhlpvvrAOBY7qOWklV1sUoO2+6/goXPtHt/kVFeKFxXpj7r3XhHBxt+FWcx0vY8fgg+rU0K0zZs4Llr7zVm1Rj08bSlVr1ItR519ssWFuNfythmgNi+w0bGpyCN1wm2zv1Ua73nYe4ZCs2fbT8mzfK/WaDa9lrjpYhwACCCCAAAIIIIAAAggggAACCCCAAAIIIIAAAggg0DOBmggpNbzolNsfyziTZ59/zWnI1GRQd8Ov/up70mljBV/qRafygX139K+V+Et1K1C76JLfxgGjhqT98c/uyTicAjOFeTbfYsbK6EO2gFD1qD4VBY86jnpj7rTDFn6Z/VWOc1edGsL1KxffHB9T9d/z1396T2u7QkQVa08ywMsW3Pqduv5ST9Kjj9rLX8c775kWrzK7o496b9G9H23OT+uBGQaW8QFyvFGbFHCGljrHq669I8derEIAAQQQQAABBBBAAAEEEEAAAQQQQAABBBBAAAEEECinQE0M93ruWYc7BZW7vf9/4nObuOOW7t47vtItxDr/00f5oT7PPOeHfltt970rTu22XVxRGd6oF6SOoeFaD5r8VV+jgr5vXfJR9z9f+qX/rPBMQ5AqXFQPwrSiXoNq7yNTp8dDqWq7T5/zQR9MqoejiurWUKbhcLFaXo5zV52XXHSC99acn1Y0vKvWaSjaM0492M+nqTkedS5fvfC4biHeYQdPcuohqTrsGqT1ZtQQrRr6VnOMhnN0hsPJWhsKebX227alzD+pfdQjN/wOnXf2ZB/cWr28IoAAAggggAACCCCAAAIIIIAAAggggAACCCCAAAIIVE6gpSMqFal+1b1lrVa97xR0KUArJZgqa2O6KrM2KcSz+RuLOY7mVlRQli+ws+PU0rkXc55sGwn038O5PkOgQAABBBBAAAEEEEAAAQQQQAABBBBAAAEEEEAAAQQQiARqYrjXer0SPZlXsV7PmXYjgAACCCCAAAIIIIAAAggggAACCCCAAAIIIIAAAggg0FMBQsoCBDVn4Zcuuimej1K7qBekhi8tZV7FAg7JJggggAACCCCAAAIIIIAAAggggAACCCCAAAIIIIAAAgg0rEBNzElZ67qak/L0Uw52J552lZv7xuK4ufmGaY035A0CCCCAAAIIIIAAAggggAACCCCAAAIIIIAAAggggAACCMQCdTMnZdxi3iBQjwLMSVmPV402I4AAAggggAACCCCAAAIIIIAAAggggAACCCCAQIUEGO61QrBUiwACCCCAAAIIIIAAAggggAACCCCAAAIIIIAAAggggAAC6QKElOkuLEUAAQQQQAABBBBAAAEEEEAAAQQQQAABBBBAAAEEEEAAgQoJEFJWCJZqEUAAAQQQQAABBBBAAAEEEEAAAQQQQAABBBBAAAEEEEAgXYCQMt2FpQgggAACCCCAAAIIIIAAAggggAACCCCAAAIIIIAAAgggUCGB1grVS7UIIIAAAggggAACCCCAAAIIIFBFgWtfPLuKR+NQCDSOQNuGvu6DQ45ym40+uHFOijNBAAEEEEAAAQTqQICQsg4uEk1EAAEEEEAAAQQQQKDRBJZee02jnRLn04QC60Z3uI32/0/XNnyrJjx7ThmBxhJYP/9J90Z0SgSVjXVdORsEEEAAAQQQqG0Bhnut7etD6xBAAAEEEEAAAQQQQAABBGpUoGP9erfwlVvcmsWv1mgLaRYCCBQj4IPKufcUswvbIoAAAggggAACFRN4+O//cB/6yCluxsxXKnaM3q6YkLK3rwDHRwABBBBAAAEEEECgpwIdHT2tgf0RQKBEgY4+G9ybUVC5mqCyREF2Q6C2BAgqa+t60BoEEEAAAQSaWeCRfzzqnnzqaXf8yac3bFDJcK/N/A3n3BFAAIEmFFh66yeb8Kw5ZQQQaHSBDf1aXdv7TnUDRk5q9FPl/BCoSQEFlepROcIdy9CvNXmFaBQCxQkw9GtxXmyNAAII5BTQA5UtLTk3YSUCCOQWeHPhQh9U/vrn17vx47bOvXGdrSWkrLMLRnMRQAABBBBAAAEEEEgTWDTnLrexa4mCyp3TVrMMAQQqLPBOUPmhKKjcusJHo3oEEKi0QG8ElTxQWemrSv0IINAbAnqgsnW3Y9ygsfv1xuE5JgINIfCR/z7W3fibW7qCyh9HQeU2DXFeOglCyoa5lJwIAggggAACCCCAQLMLLJpzpxvR0se1b/LuZqfg/BHoFYHOoPLWqEflMQSVvXIFOCgC5RXojaCyvGdAbQgggEBtCLz15lTfkN4KKk/84rzagKAVFRH48gnPuwkT969I3bVS6VEfPNyN32Zr97VLL4+CyjPcb35xvRsXfW6EwpyUjXAVOQcEEEAAAQQQQAABBLoEFs7+s1u18Fk8EECglwQ6+qyPhn69NZqj8pVeagGHRQCBcgowR2U5NakLAQSaWUBB5fLZDzQzAedeIYF+q55yM567r0K11061p3z0BPe/XzjfdQ79eoab+fIrtdO4HrSEkLIHeOyKAAIIIIAAAggggEAtCix8/U9u9aLnarFptAmBphBQUPnmy7+L/h2+3BTny0ki0OgCBJWNfoU5PwQQqJYAQWW1pJvvOO1rH4+Cynsb/sQVVH45CioXvPmm71HZCEElIWXDf205QQQQQAABBBBAAIFmFHjztdujgOT5Zjx1zhmB2hDou8G9qR6VBJW1cT1oBQI9FCCo7CEguyOAAAJdAgSVfBUqJdC+9ommCCpPVVD5+c81TFBJSFmpfxHUiwACCCCAAAIIIIBALwu8+dofo4Bkei+3gsMj0MQCBJVNfPE59UYUIKhsxKvKOSGAQG8IEFT2hnpzHLNpgsqTPuIu7AoqTzilvod+JaRsjn+bnCUCCCCAAAIIIIBAkwq8+doUt2bxi0169pw2AjUg0BVUrlnM0K81cDVoAgI9FiCo7DEhFSCAAAJegKCSL0KlBJolqDxNQeUFn3XzF7zpFFS+/MqrlSKtaL2ElBXlpXIEEEAAAQQQQAABBHpfYMGs37s1S17q/YbQAgSaVSAKKhe8rKFfZzarAOeNQEMJEFQ21OXkZBBAoBcFCCp7Eb/BD90ZVN7X4Gfp3Gknn+i+1BVUHn/y6XUZVLZW7Cr13dK5lspVX7F2UzEC5RboWBf9W+hf7lqpDwEEEEAAAQQQKEpgwau3upEtx7r+Q8cVtR8bI4BAmQR8j8rb3CbuGNe28TZlqpRqEECgtwR8UBkdfLPRB/dWEzguAggg0BACCipVBo3dryHOh5OoHYH2tY9Hc1Q6N37HA2unURVoyceioNJ1OHfJt77tFFT++ufXu2223qoCR6pMlZVLEfttV5kWUysCCCCAAAIIIIAAAgiUINDiFrxyixu59YejoJKApARAdkGg5wJdQ79u4o6OgkoeGOg5KDUgUB6B9S0b3NP9FxZf2ZK73S6Dx7jRg3Ysfl/2QAABBBCIBQgqYwrelFmgaYLKU06McsoO941vfccP/XrTDT+um6CyciFlmb9MVIcAAggggAACCCCAAAI9FegMKjeNgsp+Q7fuaWXsj0DTC/R9u49rn9FWtMPyV293/Q8/3bW0Dyx6X3ZAAIHyC6xr6XCvtC4rqeKdooCTggACCCDQcwGCyp4bUkO6QLMElaef8lEPUG9BJXNSpn9vWYoAAggggAACCCBQQwID9z3PDTnmGqfXQkrbjke4If/ne27QIRd223zAbh/xdQ0+6tuu35Z7dluvBVqu9Tqmtg+L7Z9Wd7hdLb9f8Ootbu3SV2u5iRVv23WPP+7ueOGFko6zet06d/H997sDfvJTN23u3G51qF6ty1e/1aO69F5F7dK+eq10eXXJEvffN//W/9H7sOQ7h7dWrXJn/+GP/o/eW8m3n21nr/ILz9+W18trnyik7PdGa/F/5vb1QzLVy3nSTgQQQAABBBBAoBoCzFFZDeXmPEZnUNn4c1QqqPzi+Z9x8+Yv8D0qX3l1Vs1fcHpS1vwlooEIIIAAAgj0XKB15AQ3YI+TXMuAYW7D0rlu+d0Xu3DZ2lcecSufuLHnByqgBgU7fYaMduvmT3crHryqgD0abxMFaG0TDnEdG9a5VU/d7NbOerTxTrKEMzIX1yf7j6itm07wwWG36iPL1dPvdqufu92v6jsiGkYxqqdl4HAfOLZNODT+3nWsyD+cW59Bm7oWtSOqd8PKtzIO17drLrmWfgP8v6N1C6ZnrLfveMbCAj7Yv0M59N/uALfmxb+6Dcvnu/Zdjoumem/PW0P/Rf90i1/7S97ttEFHR4eb//Jv3chtoqFfh9TPXBUFnVwBGylI+/XT//Rbjhk82G0zfLj7wl13u+cXLMi690Hjx7nz99nHtbW2ulVRoDhn6TI3atAgN3zAgIx9FNjd/u/O78STc+a4g8aN8/tkbNT14Y3ly90z8+a7edHrERMmuEmjR6dt1m2ZAsUL7rzL7xeuVBvP3Wsvd/XUqe7eGTPDVb6t3zzsULfVsGHx8sUrV/o6dhg50g1rf+c7psBUbVd5fenSePtyv1FA+Zk7/hxXe+bue7iL7rsv63WQd/Ic4p15gwACCCCAAAIIVEFAD03qnqTQ+1m7x9mwfIG/Dw+bqIcf+229t+tYtyrrfaEenrT7AbtfsDpsf7vHt+X1/kqPynq/grXb/qbpUXnqSZqi0l16+XfjoV+33mrLmr0w2X8DVLNNpmEIIIAAAghUTyDXDYFaYTcceh8GJPqcVuwmwq9LhCpp21dyWd+R27mWtkH+EBa6lPN4ZtexYnF8M6ZlCo1U+g4elRrwlLMN8fVJhF7hDWVaO8vZBn8Tu8n4jO9HHKBF7WqNrkOlQko7t7SAq2PlErfysV+4ZMBWznPPV1fSRgGjhYzJfYv5ZYACeH2/VNYv6uwtaN+7QgJK7ddnwFAfcspp/YIXtcgXfaf6DBrp36+b91xOv/B71rV7t5fwYQGt1Of+W7/Ph5IKsu27Yb+46IgCU//AQfRv1/6bY6Foy/oNru+aNd2OkWvB4hduchtvH/1yZEjt3rAk228BnZanBVbqgagA8vid3+PO3H335O7+8+Ttt/evlz/4kHt09mwfDl575H86q3vjKHi89NBD3NAouEsGaWGF2i4M97Tu5cWLfcimQO2jkyZlDSi17bPzOwNKhYQKSrMVtUHtTJ6PnaOCUYWsYVGddg4yuS8RWmrbOcs6hzacNGa0P1fbX2GtQk6dw2HbbmuLy/pq10mVhgGwrgMFAQQQQKD5BMKfiSxwCZclw5lKCtnPVoX8LFfJdtRr3eE9WDWvWzm9wnPIVm8zPDxp95PrXn8yui95PH7wOZuJLS/Hvx2CStPktdwCzRJUnqGgMno4+bIrrqz5oJKQstzfcupDAAEEEGgoAQVICngUVOiH8mSxsEk30tnClXCfjDAwCqj8/uEGVXyv4KVDYUjUu3L9opfLemS7mfF2Qc0KXNSjrSXqSbl+2bycAU+wW0lvLdTKtXO2dubap5h1cRuiQDos6xfOdK1RcKmelOuCACzcptHfZ7MJfxmVZpD2y4Bk4BoH8JGvrJO9In0AmVZ5tCz5Cwn9+xi4X+cQs/olS8vAET681O566ll/rJTjlzAKjZfd8SU/TG3H2pXdenHasdJeW99e4QbO6j70aNq24bKWrd4ZqjNcXqvvLdhTQBf2ClR7FdZNmzM3a7imHoKXP/RQRi9DBZqbDxniLLjMd95huKZt/+vGm/wuas/JUSh5+/TOXpQn7TLJB5gaElUhYDJgDHtcHvGuCRkhYdgGBaeXPfCg7/Goc1Pw2NOSDF5loD/WU1GBqIp6eJ5y623x4bT+4oMPdr/51z8zDGVw+u67uYejoYSsN6oCYP1RsXrteoU9WS1ojQ/CGwQQQACBogTCn2fTfhaJf7aJarUHnHIdgIcqeagy1/ej1HXh9zRZR/Jn+eT6any27739G+LhyU51f+8e/T7E3/P07ZqDO3jY2gJ9c4vv8RIXrWXDBtc+P/9oNond3Or5f3JtA8a6fhuPT67iMwI9EmiWoPLM0072Tgoqjz/lDPebn1/vttpyix7ZVWJnQspKqFInAggggEBDCCgsaR21oz+XtEBNN1p9N+4cJrGQkE/bx7251rztWvpvVJXehNkuhoUh2dZXarmGmq10Ca9N8qZXv6jpO2zzSjchZ/25bnpz7tiDleV4mrUHhy9pV7vZ1c52wxueh/0yIVm5PTyg3ocaLrXfVnvFwWLbDofHmytEH7DHyf6PhnXVL+6sdOu5GIWVLW2DO//NBzfm8S9coocOksPCWl2lvNq/E9Vvpf92B0bf3XduKHQu6nWpsLtZShjs7Tl2bLfTfnhWZ0imnnmbRYFasmio1gv339//sd6HFqolt832WWGjQk0FcOfvu4/TcLE2ZKn1QFQvxvdvuWXcq1LL1d5wOFdrqwK8nTbdNPVwClV/OW1aPCSr9Yxc0jUHpIWLtvOYIYPtrQ8LLUDVQh0nWawHo4avVU/MRdHwr68sXuJ7XYY9McMepiM3Guj9NKys9d60dn1k5539PJxmIwOrNzy2AmENIysTHee7Dz/ijt5px26hc7gP7xFAAAEE0gV4qDLdJd/S+Gc4PZAabMxDlQFGk7zNdk/R7A9P6vLrnkT3YX3ah/j7Khc9aFtK0Ygv/ZYuL2VX17J+fUn7sVNzCfzp6fQRdPIp7L1+ntvt3Z2jMOXbtl7Xh0Hlf598ek0GlYSU9frtot0IIIAAAhUXsN5YCivWvjq12/Hy/UIguUO8fVTfujlP+3nyNNyqjhMOuRneJCmkUe9LzeGoYsGJDQFpwY0CljUzH3T9xu7ie0b6bfMM5xnemIfBj/aN69WHqITHDffrXButD44Vtl/r1fYhx1zj58JcNe2WeIgYG8bJ6oif8o7CHivJdsV1d4VE/cZOim3C+uKec1FF6o0W+lqP17iuroOF7dTNWL7z1G7mJB8NgaN9FBitmfGA669QOgq2fInOSYGShu9UEKaefP5p1K7zUJvCulY/Fz0xut1B8f5Jh/DYeh8eX/MwhuGeP36Wv8JzDP20uT0VG177btcoaL/2KeQcut3sJ2zCoVVVZ7FF9dtQr9rX/xvrGvrVXOzah+dmx9E5Ziuto9/tV+n7Xmg7u5kFlaueVc9MCZa8Y6iFuu7hf3vWvHhf9G8tfbjXjEoa+IMNpapwTeFWWMJ5FDW/owLJXMVCQgsUs21rQ6KG622eRgWUtn5+1Ovwusc6e9xbz0iFkgoyFdqph6WOpXaFYWvakLE61tur18S9PhUwXrDfvnFvS/VI/M1xHw6b5N+rl6eCSfVO/OvHTnPW61NtKKSnqHpOak5IlQMjYw13W6liPUvVq/IP//63e3Hhwnh42kodk3oRQACBRhPgocrKXFF7WKwytXfWqp/D7YHX8F5Ka/XzY28/VFnJc0+7t6nk8cpRt91HqC675wnPw+4vksdqhIcnVzx4lT8t/ffGRQ9Iqmh0m/DhT93btm6+axRkZp/f3e/IXwhUSOAfMzqn8yi2+m0nvPOQZ7H71tP2Cio19Os3v/09V4tBZe4793qSpq0IIIAAAgiUWUABmAKfjugHbQsF7RD5fiFg24WvNtSr5mjU0LHqpakQK9eQr+FQkqpLPb/aJx7lg4oweFM7+297QHg4X3f7pGPj+SAzVmb5oPPy891ZuJaynQ35Eq7SeRR7rHB/u9ELl+m9bn4GT74kde7E/tsd4D1sH4WMqsduosLl2eqwbdJeiznPlshfN2W6DgqMe1JUV9uOH8w4NznoxnflEzf6qi1AtOPoe5H8rti6XK/hk+Lq5atflmiZXq3Xr+Z01LLUG2+1NQpeVSz81ftc55A2bLL2SSs6p+R5pQ33Gu7bb8vd43BXy/tG3ws/92p0XXra01G/nFDRkK8Z//780tx/hYFoqmXX7vr+Zvv3kPsIjb9WIaQNpbrrmDHdQsiwF2Ou+R0lZSGhhX8KPzXEqXr2KaibOGpT154l5FQ7FEhq3+HRnJQWUmoORysKJfUnLFqvdisstIA0XJ98r+BORcdJm3szuX34WT09VezVQtVwm7T3diwNqasAtpRS6LFUt3po/uKpaf4wZ+6xu3dJuiXbYL0/84XQyf34jAACCDSiAA9VRqFJVwl/1gofxIvX81BlUQ9V6mf7tHvDMJgz24yfXaOfudfNe95WFfwaXrNyPDwZ/7zd9VBltodbk/dVdv+hn/uLuW9JO1H51fPDk7FhdHK6Jnrg2Iq+B2/f/+34wVYLcfVdoCCAQG0KfPxjp/iGKajU0K+/vuHHNTP0KyFlbX5naBUCCCCAQC8LxCFNdFOzdnbnL1DDJuX7hUC4rd7radg+gzp7/WhoWAUcGkK2VSFlNGSsjpcMQrVf+FSt3fwpEFQQkwxJwps5u9nSMXXsQnt99X/XYXHAE96ADtjzNDXHF/UUXP38n+NQKm5XV8ilIE3zLLbvcpwP2sJ26UYtWdQ+zc+oEm4b15t2vlE4pvB4WaLHo24CdQzdVIc3ojLTvILhLy9ytVNtyXeeGdcraI/2VVkd9ZCzc7ChRC3I0w1f1hLVtf7NGT5slY0PAaNlFnKH36XQy655tnqT4Z5dX30fFfAq6FRvX52X9fpVuzWno76fPoSNKrcbUB3HjilrOzd//BznIHfNuZjNRvtrfbLY9tbu5Hr7bE72Wd9FhYr6bhT678D2TXvVLyvadzvB/7vKOOe0jcu8TA8o6LtsxQ/3GoX1bm19zSlp7S/29Y0oGHxm3nzfG1HDiCaLzaNovRiT68PPNz/zjB8OVaHc4miIU/WA1FCpM6OwMlvZNNrWekHOWbrMWQ9IC+XCORmT8yx2ziv5gGuJ/vfSwkVxMJftWLbcQkOby1HLCxmmNhmS2rCw6slZyJyW8r166lSnsDdfb0qFw+Gwstb2fCFnOJStvNTrVH/CHp/huX538uEZw+XacXhFAAEEmlmAhyrTr34xDxum19B9qf0smlzTqA9VhqFheM46X1nYg6F2PxBvE90H2Ogj8bIC3ugexF833ZeU8eFJHbrQh1tzNdPCy3Cb5P1VuE7v6/3hSXtANvnQaPI8+YwAAvUjoKBSPSq/9Z2raiqoJKSsn+8QLUUAAQQQqKKA5rBTaJNtWMdcvxBIa2Y4zItCExWFPwrnwnAoue+6ec/FYaSGfVSgqe0VumSURJiqYLVNoWh0k6ihRQuZxSF80lPnvebfd8aHWPnoT+P3b997Wfxeb+Lz0LEGpc+rlrFD4oPZKBALA+HwfJPBU7hteEMbVh0OLWvLZac5CBXC2U2XrUu+FnWeibYn6yrms4JUG+JToVpHNKROGExl9QqueTHHy+jVGw0trGLeHauX+2DP32BHdippN+gt/Qb4cNhvEP2V7xxsu7TXMJhNW5/2ywALnzUUqtqSLPZLlOTyXJ/tu5KxTd+2uKdxt2A2Y8PKfNDQsBnheNdh9Muh8DtSmaP3fq13vvSS7+WYNgypQsD7op6KCvWyze9oZ6DhRRXaqajXpOaTVHinORbVwzFfCYec1bbqVami42pOxrSikPEHRx7pV02bO9cfN227sG0WKCZDQn2+9sj/zNhdgd/lDz3kQ9yz9tzT/eDRR91Ju0zKCPwyduj6oN6dYQ9QC22/+cCDPsS1np/hvmuieYEuvv/+jP0UMto8ndpW9aiXaa5y78zMY+falnUIIIAAAt0FeKiyc2h8+zmPhyrfGYY0DPnib050r2YPedqyXA9V+p8vo5//w4cirWedPWSrez97EDfcrltwaQfsek3+PG8PIVbq4Uk77zB4tYdbNbSvnZeaFz6Qqc88PCmF7qXflnt0G+5Vvhui3yNQEECgtgU+cfqpvoE+qDw56lH5897vUUlIWdvfGVqHAAIIINALAmFYF4aE1pR8vxCw7ew1rM+CDwVlYbFQKFymIK7Q4SnV62/D8vkZu/fkQ3Iex7Cu8CYuXK729qQkz0GBk+8h1hWOFVu3eprqpjK8GbU6NNSurkuuUsx5Jtueq95yrSv2mHbznzx+2KtXAZ//fncFfertq/UKKatV1DsxrYeiPb0enkccaHY1Tm3Vd1c2fbp6HPaLhuFN/nuzc0n+e9QvVywoD4PPeAjk9auj4aue80Gt9VIu5787a1fqa9Rbsv+4fbudi9rcDEU96qbNmevDr8O23bbbKWt4UgWOCsvCXofJDRXmPTlnjrvssEPd3VHoqZ6ZH373RHf136f6gNJ6RVqvyeT+4WeFeztGwaT17hwzeEi38C7c3kJHhXfvGrmJOyQ6Dx1XZfW67sHfpDGj8/Zi1L4276TeW2/Doe1tPnxVj8pc81Ha0KmrIpcv3HW3WxT1KlX71BtVPSRv//d0l+y12r9vX3fh/vv7UFf7qBw3caJvq4LaC+68y1+LU269zZ37vr18D1XVGxYFtfmGdQ235z0CCCCAQHcBHqrkocpKPVQZ3+9GXzuNuDLkmGsyvoCa2kEBZT08PFnIw60ZJxd8iO81ovNNK8mwVduE9xCN/PDk2lmPZb1n67PRJmlcLEMAgRoSUFCpHpWXf/dqd8IpZ/qgcsstNu+1Fqb/V7bXmsOBEUAAAQQQ6H0BG5ZFNxjW6zFsVb5fCITb6r0NDZtcHn5Ofdo13CB6rxtB3RAWUtR70s+PWMjGKdtYzziFPmGx4M5uvnwvRhuSNNywhPd2s2u7tugc+nX23rNlpbyqjfqjUDIOm6J6ff1ZKqzkeWY5ZNGLk15FVxDsEPeGbRvkFOrZHI5anlGi8G/19LtTb0i1nYYL7knJ94sA1Z32ywBZ6Jrp38j6t+ZE3XtXuz7Rk7wqa19/0q145If+vf2Vdn1tndqQq4Q9T31vyul35do8XpcMROMVOd609B8YDU91oP933xFspye8bUjlYHFDv7U5HBWqbRb10guLzS+pZZpTMlfRcK0K2BRWKqRU2S2aJ1LhpsJLDeOqkqseDUmqMFA9MC1k7Ozd2eb31V8WFuq9enkquLMyLOoJecquu7q2KOxTURh43M032+q8r1afQlkrav+Zu7/zMIHa+JeTT/K9K8OhX9XDUfNb5isKJm+PepeqbbLP1zvV6rOw2D6bj/XQVG/YkydN8vN/Jntf2j68IoAAAgjkFwgfguShyu5e9rNetzU8VNmNpBwLeHiyc3oXP01HF2gjPzyp69132ObdwmuNxrRhxaJyfKWoAwEEqiBw1hmd0zopqDw+6lF5k3pU9lJQWdhvOquAwiFqS+CTnznf/fnOe2qrUbQGAQQQKIPAtK/vnbcW69W4ftGr3YZWzPcLgbTK7QnTMNiz7ewGWgGGzQdo6xQyhkNK2hCzeho0GR5pf4WnFsapp6BKtqA1PkbwRjdSNk+mho5U4GQhpYZPWvfGM92HmY32D9tl1YW9ILMFnratBWTdzrdryF1tp6F/iikKmjQEzaonborPIW3/bO3sNpxutHPaeabVGS7rWLGw82N0LX1wHK4s8X1Yp30/9L3sHw0LW2owHQ4ra99X9dCzHo0KxDQnpb5nOo62t+/GwL0/4dYveT3ettDTCs/DbLL1olSduXpS6kZ51VM3x/9e8wWNhbYxbTudd9ibUv9uc5Vc56T9dO2ylb7Rk+t+yKQCH07IVk++5SeccoZ7/OWl+TYr+/pp55xeUJ3W+1EbHzFhgp8XMtwxHH5VvRVLKQr41LvPhn7VXIy5ShhU5toubZ2Ga33v5pv742m92vz5D+wXzVP5lO+dqPkybTha29/aZuGngkbrsahtbM5JhbgatlbzSYbDuGobCyjV01TzcOYqamPYmzLf/JKqK7xO6r2pMmLgwLjHqj6rN6yKBaoa3raZy577HuwWrsh9LYr1+dyU6P8LqljmPrfU3fG15/0RB41sc4d9foIbNjb3UL89bd4Lf13gHvzRTDdy20Hu0AsmuPbB/Fqjp6bs3zOB08/+lJvxWHl+MV/IvYpay0OVzg/xr5+j7GdSu4p2fxXee8UPwtlGJb4mHxJshocqw1FMkmz6+Vwl6dKTB2bt3lAPTfbk4cmejgQTf2dy/BzeTA9Pur79XNtO0cOciYeI9f3QNDF6GLhSpVz3Knv/118q1UTqrWOBS771HffJM2+t4zPoWdMVVEYdKt0VV0Y9KnsxqOSn+Z5dx4bd+1/PPOeGDB7sdoiGeqIggAACzSSgmxE/r0ZKECiHfL8QSFppqBzN2aHSsWJxHKLYdmH4Y+GordNr2vA6G5YvSA2E0m6SLGjNFYSExwvngQzr82FnFFJasBT2CtO65FCv+mWBht1U2Kk/A/c7z89nonkik0UhjoIxHS/1fKOwLN/8kck69VnDfeq4acVctC6tnRaK5jvPtLrDZX643ui75APYrfeOvj97+p6I4TbFvg978qV5ZasvvJ5+m6hd1itS1ysOqPtv5FebgT4o/FYIrjrsevqN9Jf+rUQhZbEll41/CjnLLwS6nUdXG4o9fk+21zXQv9fVXb0oFeBWoshdgbmGTPLD2K5f6w8Tzgsa9rAstQ07RMFf303KUVOpLci9n3rzKXBTmJcMDxWM3T69s8e35k9UT8lSSlhPocOsPjp7dnwohYSam9J6YsYrCnwztK3N9/DMt/l1jz3uLj30kHgzG8pVvUlt6FVbaUO5ykRDwmrOzmKKelO+HvXQVM/HN4Jem9nqsDkmdZ20r4JOuarHqnp9zly82A8nq7krKZ0Cu+6ys1u6Jvr/iDotYUBZ66ewbvUG99B1M92Mh7seHupq8Pj3j3D7nBn9DNLWp2KnoFD1qdtmVzTAtfPTSaSdj63X+e/78XFu+wNKe6CjHEj2vZn8vzu40TtW5r8Hdr7moVe7/pU4/wnbbes2cRvKwVNwHXbfEP5Mazvr537Nt6eS1svStgtf7SG1MNiz9Rb66ediHqpMPETaoA9V6mfQtgmHupbogbnWTcY73SPbw4t6r150GqnE7g3Dh031/bMHZu07VMxrbzw8Gd6X2MOquR40bMaHJ3U/siG6F9F/B/z9fzEXtYfb1vq9StrpfeFjw91O4/u7Vas73A1/WOoWLd3gzjp2qBs+pI+bPX+du+DKzJ9H0upgWXUE1HNwi+HvjEhTnaMWf5Rhw4a67bYbX/yOBexx9pnqUdkRBZXfj4LK092vf3G92zJ6qLaapbS7+Gq2kGP1msCQIYP9eMS91gAOjAACCFRAYOmtn8xZq92gh73Iwh1y/UIg3M7e60ZeP8irbFjVvadSeANoc9zZvnpdN/dfncPFdtWR9UnWKChaN+/56IZwh7g3nYaELDbcU3v0Z9AhF/rAMG5LNB+eeh2qPhkoHFPRkC5rZz/l58qLt+16owCnfZfj4vNPrg8/r3jwKj9cp8KXsJRyDto/vLkN61OgZsGcLU9rZzHnafWkvYYBbNr6UpYpUFz52C/eGbo2qiTjOmQJ9/Idy55a1i8ZfCgd9ZYMS7ZrlC00D/dNe5/NJtsvBHL9MiCt/kou0zVYfvfF/hD6RY2eHi92mKtc7evTPsSH+gpD7alkhcb2S5Pkvwv9e+1J+fIXPhf90nH7nlRR0r5Lr82c3yhbJRYGqmefgq+wKDyzOSHfHwVjpRYL2NTbMG3OS9Ubhmvq2ahgUtt/+N2dc1pqm47of5Uoc5Z1DkM7Jvr5vL3EILbYdsnaejyq56WCxomjNk09vnqz/uKpaf4Q4XVSQKr5PVVs6NdCemX6HZrgrx9e9e3owY+BZT3Ta188u6z15aps9tPR3NFRqfUejdbzMte5VGqdHVu9TCtVLJBTAKnQNa1Mi0LSWgoo09pYrmVpHgqhFd6qqBfu4FFtZQ1Iz//MuW6rjSaW5RTy3avoIDxUOdU/BOpD0+gBOpsv0f/8ykOV3R4ezffFDAM6/yBc10OVmqe9bVD0QEP0c27bDof7P1aX7klVGubhyeXz/c/y+pneHojUz9uy4eHJzquua65Q2v8eQL8bWLfGr5CX/qjonrQSpVz3Kid+cV4lmtejOr/56RFu7Kbp8cz9j69019/W/XdIPTogO3cTOPH4D7vD9zml2/JmW3D2mR/Tzay74nsKKqOhX2/4savmHJXp/wqa7SpwvggggAACCEQCeuLTej2GvcgMJ98vBGy78FVhV76g0MIO209PK1vpWL3MLZvyWfuY81W92ZJz79kOClWW3fEl++hfLZDMWNj1IdmmcJu0daue/l24iX+frf5kO2zHQqyybZPWpmzHsePZa7Z2ptWZPE8Fd/lKtm2S34u07dKum46Xttx/b6IbawWx/pcN0XbZzi2tzdnCwXDbbP62TTHnoH3Stre6wtewR0C4vJA2h9sX816/+Bqwx8l5d4mHs1q93Af54Q72S45wWSHv7bunYFY9V+2aro7+e9JsRfMvqgegwsC0eRE1x6HCs845ITMDzEKtXlm8JA7YVI+GQ7USDmFq4ZradNkDD/pNPr/fvk5Dv46IgqZJozfzw6z+e8GbfthYq8NeNx5Q2BCYFoaqZ6aOr6Dv9aWdv6BI9hYN55vUcRRiWlHv03DIVxkmSyHbaB8LSRU4JnurKpiVh66D9aIMj6P5PW34WrVheIEOqmNJ1EN0URSQpvWiDY/B+94VGBIFPq39K9cTsSdnp157CqVUkmGqwiyFiI1eZPD0lDk+wBy3d3qI2egGOj8FlRMO2tSHtdPvne9Gjh9U0R60lTTloUoeqtT3Sz+XF/rwaK7vY64HBzdE4V3yoVOFwRp9R0X3JI3w8KTumfRwcfKB2Wz3Gs308KQeklT4qCFd2ycd66+7RuBx61d3fgei8DK8p5MNpTwC++8+wI0c3tdd+pPF5amQWhDII3D2xz/mH7r99veucRpmuZpBJSFlnovDagQQQACB5hFo3WynzuFL1Dsw6sGULDYnYbZelsnt+YxAJQQU2OkGUT1AdUOtogBdQ8mqdERhmXqSNkKx4cXsXOwG2T5X8lW/gNE8l+pBrN6MPiyMDij/8LPa4Ld9Zkq3OZGy9nwOGp5Wn63WDX/ntd2j2zXV9Q5/aeR706b8d8vqqtdXCyGPj4YdDcNDnU8YYGbr/VjIeW89fJj70VFHOs0FqaFNFQxe/tBDGQGfhlVVGKmiNqnccMzRcZs+sM3Wfj+/IvrL5o7UZ7VT80cWWiZvv70PJRXshSGjDLQuLD0d7tWGa5qnPwAAQABJREFUhF0VnbOGi1UgqGLDx2qoXSvaVj4qGj7Wgkc71xufftrts9VW3Xq7yk1t1/Yn7TIpNrN6k6+ap1Lha1gUBid70YbreV+8gPXwU3C3xwlbuAd+MNMNGNovnuMx7I1mtdswmUtmr3R3Xhb1KF/Q+QtK9dCzXnzqrTbzkYXxnJFpdSf3T5vL0oYEtWPrNW140NXL1rm7vjndLXhpud/U2qgPq6J1j930ml+eDCi1UKHVjv/ROSSm3yj6K9k2LQ/r1OfQ7sBPb+ce//WseBhZ2zbpJ6tbP/tPlzzXx3/9mg8QVa/KzkeNcbsfv4V/H65Lq1d17X3a1u6Rn76S9VqoIgVyKgroksPa2rn4DaK/kk6FeNi1snN76YE343PKdj46ns1lGl7X8Jy1Tbb9S/VQMKnepvq+yqNSw82q7ZUqPFT5jqw91PXOknfepa1LPmyorbM90JftYcd8D+ypzmzbpLUp23FUT1iytTOtzuR5hgFSWGf4Pts22Y4b7pv28KTWJ9tRSF1Wb7Zw0NbrNZuzbZNtfZpZIfVZvc328KR9N3RfFo+mFPWozOZrTrwWJ7A4Gg72B7e85Z6bscZ96OBB7ogPDHStfVvcmJGtbsdo2FgtpyBQDYFPfvx0P0fld66qblBJSFmNq8sxEEAAAQTqQmDV07dEN1O3ZG1rthuarDuwAoEKCbT0G+B7+XXr6Rf1olzzyt+7hWUVakbFqy315jffLzZy1Zu2b/IXSMnPSYhi/luR7Rc7Vmdae7SumF/0WF31+KrhRm3I0WT7FVr+5rgPJxcX9Fm9AS/cf/+MbcPjaF1yvW2crU1WZ3K/bO1UePfXj51m1Wa8ZjuGbZSsUwHetUf+p63u1vZkfcljq+3h/qoo+TmuPHqTrE/rPrLzzuEmGe/TttcGCl2TwWvasozK+FBWgZVvrXWP3TjLh1wKKVUU7oXBnx3QeiRuun33Xrm2TfiaVrcFWuF2CvAUeh72+Qlu2NgBLm2bcHt7r/r/ds1LbsGMt21RxlCei19bEYeX74oCqfbBuX/9kQzsrFKd95xn3uo216OOf993X0g9vsKwXCUZYtq26vGooqBy0tFj3fI3V/tA7d9R0Ljl7sOdzkkBm8p+Z43zwbL/kOUv7T/vheU+fBy+xTtDC2c7flhNsR7a94FrZ2R46HyGbNaedw7MbO0pt4dC2jETh3pDDVdclyElD1WGX1PeI1A1gWZ/eFL3T+uiB2HbJx7lX0P45EOXYW/bcLt6em9zSlqbbW7Jh55alREi2vpyzjP53Mtr3AeiXpTDh7RY9W6fXdrdKUcOce1tLe7ZKLC03pWnHz3Eqcelig0Pa8vWre9wt/9thdtjYls8pGzYToWf4TyZjz2zOg5Hbd/f3dP5EJg1JDk8ba76lizb4OflDLdJ7h+62jF47X2Bcz5xetSIDvedq671PSp//fPr3Rabj61ow3L/lF7RQ1M5AggggAACCCCAQLECCrU61q6Me/bZ/urhW0w4ZvvxigACCCDQvAIKCMdHQ4AeecnEGEG92dQzMezFZsGhhWXHXT0p6kHY2QtQPdPUgzLZSy9Zd9izMa33nHrgKZyzuS6z1WsNVf27REHekZeMzOgBuWze6ih8ck6vKurhly9YVY/Bp6J5G1XC87agLq3nXbbjW/i1/7nb+kBMIaf1MlQIq6J6w96nsrNeizOinqjb7reJD2wVVCpk1PWYGYWT81/snJ9WbbSA7Zgr3uMeum5mt/p0nPnRvnYdwpBWvV0t7LReidr+9Wmd84yW6mHfpTDoVsCrYWZ1bcfuPDS1B2W1PHSO+i7oesx5dqkP5EMXra/1wkOVtX6FaF+jCuR6yDHXOWd74ND2yVVv2r7JhyWTn61eey3m/jDfw5PZHpLMt5+1pR5ew+Aurb1arwBRvRzDonklFWxaeBiuK/b93ju3RwFl5zD6cxas870oFVKWUv7j/QN9sGn7ZmvniKF944BS2+r8tO8bC9c5BbPZXFSfgscLrux8gMqOo/pGjehrH/1rMqDMWMmHmhM45xNn+B6V3726M6jU0K+VDCoJKWvuK0CDEEAAAQSaXSDXjUrSxoZfSS7nc2MLFHOz2dgSnB0CCCCAQE8EFNYoELOicEnhjYp6sVlPNluv3oOrlq7N2ytR2yfrDns22lCfVq9e1etPPeqsKETTn2TAZ+s1NKl6F6oM2qTNjYrCJwVyS99YZZsU/GphXrLNqn/kvYN8SGjho1Wa7fi2PturzlHBnYqdY3JbOSvQ1B8Ff7oOf7/hFb+ZjjvxiM7hp5P7JT+bhXozWgmPryA4nKdy80lD/WazHl/sLYvxCLdV8DdmpyFxT1Y7dtpr2J5Ke4THL+a7HO7HewQQQACBxhU4av+N4oAw7LH4yf/u/P9HnfmKVRvczXcu8+GdPlv41pOhWRVKfjEKOcOiHog9CT0VNM6LQkYFiGFPTGtneKxoUBXf61I9J60XqXptvmub/v48zSVtWFqFkRqiVj1ArWhf69mpZTq+gkuV0NUv4K+aFTj3rDN826oRVBJS1uzXgIYhgAACCCCAAAIIIIAAAgggUDkBDfHaPqRzmNdyH6XUuhXAKSi1eSYVPGo+x7DHXzFt1f4W+uXbL9nm1v593JBRbXFb8u1fifVJj0KGri20HQp3kz1gw30b0UPfd52XvhOU0gV4qLJ0O/ZEAIHaFBi1cV8/B6RapzBuyv3vDCd/zW86Hy7SumSvwRdnrfXDqQ6IgrmNu3pAaruelHCI1FLr0ZCtGsJVRb0h//MDG8XDvibrnLdwvbOhXV98da2bsHW/uLeoelEq2FRJC1O1fFjivOX3yNPpD43tFNX3q2+M8sY2D6fqoNSmQGdQ2eG+e/UP4qFfNx87puyNJaQsOykVIoAAAggggAACCCCAAAIIIFDfAqWGgvnOOlvPSNtPodmRF+8UD3+qkFHFhg217fK92rCe2n96NKej5onMFcipvmTvunVrNrilXcPG5jteKevDoWWz7f/M7XMzQlIbcrccw5Ra79VsLs3mke0asBwBBBBAoLkE1FvyuWjux7RiPQ3T1pW6zHooaqhXzTGZbVjWUuuv9n5JP4Wk6pVp82eqPQo8/+eUYXEPzmq3keMVLnDuWWf6oV+v/P4P3PEnn+4qMfRr5wDHhbeJLRFAAAEEEEAAAQQQQAABBBBAoAEFbJhOnZrmaNTchFb0/uWpi+xj0a/DtxjoNFSpQsNpUd3h0K6qNzyWKtdQp5r7UkFeKcWGStW+Gkb0jq8/7+cgtLo0tK3m1VQ7wkBTc2Na0bCn1qNT8ykWWwZHvTBVrDen3isQHDOxsy4N46r5Pq2oTc/+5Q376NfZkLsHfno776f2KLi0ovrUI1JFgaqCVSs2zKsN+6rl4fHlovkprWhOSrWhUh7qwaiQWsXmDA3bU2kPHVfDFSt8TfYS1ToKAggggAACEhjY3sfPw5jUsIBSoeI3frLYnfjFeX5Y0+R2pX6+/ralTr0oVdSbUcOo1lJR23TOyT9qd76ibbSfhnu1oiFpt9uqMiN62DF4LY/AeWef6T59zifc7Dlz3UdOPdO9PntOeSruqoWelGXlpDIEEEAAgXoXaB05wQ3Y4yTXMmCY27B0rrO5/wYdcqHrM2S0Wzd/umMeyNq9ym07HuHaJhziOjasc6ueutmtnfVo7TaWliGAAAIIIFCDApqjckYUXClY0zCrYVHvylKLAlANVaqQLTn3oPWuVN0KDi2YC4+lYE+BVjFl0tFj/VyXOp6Oe+MZT2TsrjkZVRRo7hJt++CPZqbOxamgdPSOQzL2LeSDhXKy1Dycdp7hXJfJ+TktlFVY+NhNr/nDqJ1b7DLMrV253p+HfBSaWpssjLRz1Pb7nDnOxSFp13yf5hceX+esPyoKkQ+9YELFPGyoVXnYcSf/7w5+blGb+7OSHjp/BZQ6vuYw1XC+FAQQQAABBCQwb9F6N2fBuqiHX3/fy0/zMFpvSs1J+fT01W7Y4Mz/39BQqDtv3/nwTbkUNUTrqA/09cOtfiDqVam5HhdFoejK1R1Ocz2Gc0qW+9hp5yADc1EPz9OPHuIslNRckwfuOdB97UeFP8SmeTbDOTLTjsmy2hQ47+yP+x6V37vmh37oV/WoLNfQr4SUtXnNaRUCCCCAQA0J9NtyT9cysHMS876DRzkFmesWTC+ohQP3Pc+1bjLerZ5+t1v93O0F7dMoG8mtfZfjXMeKxXHYW85zS7PtOyL65WmfVtcS/WkduV1VQsoBu33E9dt6b9exblVJwWhP9y+nKXUhgEBtC1z3+OPu109nhkY7jBzpLj30EDe0vb1ijZ82d677zB1/dt+dfLibNHp0RY6zet06d/lDD/m6z99nH9fW2v1W9Y4XXnCXP/iQO2j8OJdtm2yNs/rvnTHTnb/vPm7y9ttn27TplyuwO+obE91d35we9yIUigIshVs9KdsfMNIHZ8kgavzeI3wwlq1uBVkWyGXbJm25Qqn9z93WTYjC0eQxtX0YfGZrW6nHVv1h+KnPVhTYTv7yDu6h62b6wNaWK8RUSKzenVNveMX7a5nCVp1LGC4+8IOZ7rDPdwaK4yI/DYerMDYs1nt13gvLfVir9qjo+BpSNxkIa/5NC+4q4aHj7nHCFt2uRbU8dO6zn+6cVyy89lpeT4WHKuvpapW3rfZApu531r7yiNPcoBQEECifwINPrnTjN4/m647CQJs7UbWvigJChZRLlm2IhmLNnJtx+Yp3RjAoR0s0N6R6F+r4GhJVQ8AqFNQQqvqcbV7Ichw7Wx2hi4ZsDYdttZ6f2fbV8myhpObN1ByYlPoR+NQnP+4bW+6gsvudX/2Y0FIEEEAAAQSqIqDeeG0TDnUtUU/K9cvmFRdQbjrBuahXX7MVCyhbWttdRwVO3geUKbbrF870obB6Uq5b8GIFjpxZpX5RoHMtNaBUbfbLBQWd7ROPch0r3yr4O5bZGj4hgECjClhI2BvnV41jhwGiAsi0onaUGlCqPoWeCjZVVM+YwYMrFrj6g9T4Xwqg9CdbsRAr23ot3/34Lfyf5Db56lbY+LHfvDe5W/w5W722QVr9FkYqkEwr+Y5p+xSyXbHHT9tex8vXZp1L8nyyXZdsdWm5eq+q16KGsZVtWPJZF+KRbZtsdWfbPts5WHvL4aEhhdVLuByBu7WrVl55qLK0K2H3LNV8qLK0lha2V08ffuzp/oW1kq0QqF0BzZ2oP9/89Ag/L6S1VL0Y1Ztxyv1v+56MCgpVFNC9OGttRmhn+/TkNQwFFfAtiY798z8uc2cdO9SHlJU8dlq7ZaLzD4+v7RQyqudnKUXB7w1/WOq9S9mffXpPoDOo7HDfu+ZH7sTTPu7uv/OPPW4MIWWPCakAAQQQQKAZBGzY12Y413o+R/VWrVaPVT3F3n/r9/mem+uiILsnQ8uunfW4ax21ox9muN+WuxNS1vOXkLYjUGaBV5cscZc98KCvddSgQe6bhx3qtho2LD7Kbc8+F79v1DdvrVrlrnvscafz/+ikSam9LAs5dwWVR0yY4NSb8vbp0516oab12CykLrZBoF4ErPdlcojYeml/OdupoFZDvWpoXwW+jVR4qLL4q2kBZbUfqiy+pYXtwcOThTmxFQKFCFxwZebIBOE+5162IPzo39vwp7ZCQ5omS9p+2Y5jYWkhdSSPrc/JZaon7VhpbVJPTv1JFg37mra9bZdrfbbzsX15rS8BzUf5u993BpMf+j9HlqXxjfVTWVlIqAQBBBBAAIFMgWxDKoXLbY+OlUvc6hfvc23bHegDJ788Go6nbYfD/VyJNuxr2r7hfJfhTbOWd6xY6IcUVX1pvfaKra9P+5CMOTbT9te5rHzsF1kDM3vS1s5drxp2SEW9Aq1oLs8hx1wTz/EZnpttkzyW9ZTUua57/cnO3opR78g1Mx5w/TX8bjRnqC8J2z4DhnYeO9rWrMO6Vj/3p+jaHBTvH5pbW2x7fQ6PnxxWSWGi2qG2K2TsSdHwwevmPefbrrBS16PQIYV7clz2RaAeBBRQfeGuu93zCxa443d+j9tz7Fg/9Ki1PRyC1Hr9Kcz6/H77+mBr0cqVcbAX9tiz/cOhP4s5lvZPDr+aDBHD+nSc15cu9cO1hsdM1qFzPHP33X3z1N5fTpvm5i1f7gO6ZECpjY7eaUe/rf2lUPOCO+/y+9iy8HhaFjqpzjtfeikeRjY8frJtGvJVJTRPbpNtf2tDeA3k9em93+eufOTvcXsVIOpPOKTrw7Nmxdc/DGh9Y4r8S8Gk6tYxFFhWavjaIpvF5ghUTEBh3H5njXN3XjbdhUPEVuyANVrxC39d4Ocb1XydGh63EQsPVTbiVS3snHTvwMOThVmxFQIIIIBA6QIKKI8/+Qw3e84c96lPfsKd84kzSq8s2JOQMsDgLQIIIIAAAoUKpIV6he6bFtJp39Zo+FIFZCsevCqjqr7DNnctGtq0q+hp33BY0JLq67+RVecDsQF7nBQHd/GKHG/SAsocm2es8kPnRucQFoV97ZOO7TZ3pZ9bcvNdfW/Fng6bq7radvygk58VmetcbMjVQYdc6MNbW69tw8DVluu178bb+I/FDAEc7p98r+FpW6NzbWkb5PpG82kSUiaF+IyA80Fack5G9TJMC+9+9Nhj7t8L3vThnuzCwDC01NCfKsk5CnWcXMdS0JdcrzDxm1F70uaI/NvLr7hHX389PnQY1sULozdWp4LKN6L6npk3368+MArW8gV0NmdjWJ/e6xyfjG4k0+ZxvOyBB7yT7aPjbz5kSDcPW2+vhbT/5KjX4/zoHHzPxX9Pd+/fckv38uLF/rPqUZA8fEDnHHlWb/JVx1HbVRRQ97So5+SuY8b4Njw6ezYhZU9B2b8uBDQX5XFXT6qLtlaqkdmG3a3U8apdb3hvsmHp3Phn6nC5tYmHKnv3oUqN+pJ2XfI9PKl7oXXznrfLmPHKw5MZHHxAAAEEEKiAQDKgtPkpy3EoQspyKFIHAggggEDTCShEUpikot6DFnIZxJoX7/WBo0Iw3VBarz6tVxCm8Cv8BYKFfn033sr3GrR6/GufvlGPxp/74UQtRAuDLAv9Cq2vpbXNrX7+z/GwqBoaKNe5ZLSl64MFdMkekLatArf2XY7rdp5ar/kiw+Nbz8WWgcP9uWcMmxoFix3LF7hld19sVbvVz0zJaivHrCWqa/2bM3wIrHNum3CIDz/tXLSsz6DO+blCSzMP61UwrPbq2moezHKUcJiuviPS52Qrx3GoA4F6Fgh7KoY9BtUT0Hof6vwUFk4ctam7cvLkeDhP9fiz3pi2rfUovL0rQAttCjmW9Q7UftYeHUNBXLKHntbfcMzRcdCoQDHZY9DquC/q5XfYttu6xVEvUJ2LSr6ATvv+4qlpftuwN6MFl2k9B1W3ws8fHHlkRoirUPCgceO8adhzNexBWUj7FapqeFYFrXK5d+ZM99z8ztBVbTSjn0culz/0UDcPnYzOS/urB+Q2w6P/7pah7LTppj68njZnrj/voe3vPLxShuqpAgEEEKgJgbQgrNCGlfQQJA9V+nuDfMaF2na7B4nuZVpHvzu1eruf4eHJVB4WIoAAAgj0UKCSAaWaRkjZwwvE7ggggAACCKinnf6EwVY2lTjcijawYVDDbdXbr8+gTd2G5Z2/xNW69Ytejec7XL/o5YyefqXUtyEK/bLN21jMuaht6gE5cL/zugWxWpetvH3vZRmrFPK1bjLe2blnrIxCwLWzO3/pnrG8hA8aunXtq1P9nuujELUjmk8yHjY2WuqDwchfwWN4TL1vU3ipdV1F10jtVeAaXitb39NXDcdLQQCB7gJhb0IFYPqsnn/qraced2HRUJ4236B6USqQUtH21lvRtteQsEuibYYFYVW+Yylgs5BN9WwWDV2qYFTB35xlyzLWaX1YX9g7UOGh/iSLAspiyrNR+KdjK1xVwGlFvRdvjwI+hYTJnoPhtgrqJo0Z7bezfbO9Ftp+XaPwOl39987/BitwPG7ixGzVZyy3oFa27VEvyHIWu+6ElOVUpS4EEKgVAR6q7Bz1pNYeqizkgVXda/DwZK38S6IdCCCAQHMLhAHlp885y5139pllBynvXV7Zm0eFCCCAAAII1KaAQj6FWr6nZFcTFToOPurbbtVTN8ehYi22fsOqpRnNKuVcVk+/K+4p6SuLAjvNuymT5HC1GQeLPliv0eRyhYPJUqkQMHmc8HNvHNOOr2uj7xEFAQTSBTQMaSFF4Vu+YUTz1ZPvWNmGj81Wb776su1ny9OCT1sXvm4cDZ8ahq0K9sYMGVxQ+BjWU873CiQVEisoVTniXRNcbwaD8pGTQkoKAggg0AwCxTyIWMpDkDxUWdhDlYXa8vBkM/yr5BwRQACB2heoRkApBULK2v8u0EIEEEAAgRoVsDAuHIpHw7i2RkPBZgxZmqX9afOO2Ka6gS229KS+Ys9F5+eHJw2GTVV7+w4e5edYydZ2CyjVq9HC3Hjo1Ww7VXl5ao/OKreBwyGAQH4B9eZTD8piSzhEa3JfBY9pJXmspatXu6/ce58P3WwIVG1jQ5am1ZFtWTg0a3IbtUe9DhXu2ZC0+cK9ZO/AVVG75ixdlqy6bJ9ztd8OcvMzz8QBpZYVei62P68IIIAAAsULlPIgYvFHqcwePFTZ6crDk5X5flErAggggEB+gWoFlGpJn/zNYQsEEEAAAQQQyCWwPJovUXMsJnsCdqxY2Llb1Muwz4Ch/r2CvY4Vi/17DXGqgM6K3g/c+xP2saDXcteXdi4KTNVDdMgx1/hekGHD9MuPpb//lB/qNlzesfKtaLLOzl/2t/QbEAeXLQNHhJv59/3GTsoYSrXbBikL0mxTNitqUVinb1O0t+by6R8NCxsO9apKNcSrfmmQDDTTrBTMyk6GWq86B0++xC/TfJxhsWFek7+YCbfhPQLNLKBwy4JEP8dh1zCpu44ZEw/tmuZjQ5lqneZt1DyHVvT+by+/Yh/j11zHWrF2bbdeeGF74kqyvNEwtGqzioae1dyYVnR+tz37nP+odqvXoYrq//iUP2S0XcGo5trUPjbPooZ81RydVh6eNSsOCPPNa2n7hK/qkaqeqSrqzalSaPu1rc7Nhte96MAD49BVwaUV1bepHSMKVBWsWrHjK2gNl6veA37yU3f2H/7oz18WF99/v1+m+TJV5KL12i401tC+CnOTvU7tmLwigAACjSKgBxGX3vrJjJ/V7aHKQs5RD0Fq/4w/0c/+ugcopfSkvmLPRfdJy6Z8ttt9WjEPVa587Of+3NPu9Uo5/3CfQiyS9xr+njKYgiKsj/cIIIAAAgiUS6AzoDzdzZ4zx1VqiNewrfSkDDV4jwACCCCAQIECce+/xE2iegiui+Y7VNmgoE5DmEbb+CGWooBq9fS7/XyHNsehhkjVHyu6WS22hHMmllJfvnNRz1D9MkOl78adc7uEvUfD9q5fNi86/85z6Fi70s/5aPNWas5OzampovoG7HGy/yOzZMAb1pn2Pptt2raFLls763HXOmpH3+a0+ULDeuIQNpqT0wJorU+zMjP7hZDa3tLW+Qt/+yWJzBReKtBViQNT/4m/EEDABBTU/deNN9lH/6qehpp3MV/RPI33RaGmQrxTbr0tY3P1rkyWfMdSwKW6PnNH9JBKVBTkvWvkJu7fC95MVpX6OZwr0uqwDdU70crk7bd3ry9d6oO+tLbb/I6a+/GkXSa5yx98yG9rwaDVozrDOTRteb5XGxpVx1bd+qPeo4W0XyHhdY897g9xUDR/6F5bbO7eXrvGh6Zqn0JTa5MNh2vu2v78ffbxQ9fa0KwKF60nqebXVNH2Ly9e7If3fWZe53zOT0Y30weNG+eXa71KOB9nJee59AfjLwQQQKDGBPQgYtrP/PHPnImHKtsmHOpaoikI7KFKCyVVR99hm7sVj/yw4DP0o6+Usb60c9GDgO27HOfvMda+8ohb+cSNcfvUdv1J3r/EP89H9yX2UKV+Js/5UGXK9BTxgRJvemIb7quHJ9V+3SvoXiVZcj08mTRJjmojgwF7nOTvf3QfaqPr6Bg8PJmU5jMCCCDQHALvBJRzqxJQSpWQsjm+W5wlAggggEAVBDpWLnErH/tFHNLpZjI5b6WaoeW6mbSbRmuawrq1r061jwW/lrs+HTh5Lq2b7+pv+i1kTGtct18IJOetjHbSLwwU2tm8izrO2tlPuf7j9k2rMuuybLZZdyhghX4poetnN+raJaN9QSCtbRXItkYhpYWQ2l4BddJKZjpfC7D1y4COqHemwtsw1O2rMDgKL2071UdBAIFMAQvvLICzIEs98fIVhXg/OupI94W77o57FmqfbCFnvmOducfuGQHlVw860N0S9Q4sNKRU2KawLzlErMJOBaphOXP33f2yC+68ywej4bpJY0bHwZ0CzTGDB8ftsu1sSFr7XMyr2hmeq+2br/3q2Xj11KneWuf00UmTfA/MMNy87IEH3TcPO9Tp2ihUVLh4b1fv2PA4Okdd82fnz/fbap0CTi3T9dtm+HCnuTcnjtrU+1jPWi3XegWVYS9SCzhtOzsWrwgggEAjCaSFkjq/8GfNbA/+9fQhyKRjT+vLdy5pDwomQ0lrU/jzd288VFmIBQ9P2tXiFQEEEECgmgK9EVDq/Fo6olLNE+VY9SGw3yEf9A194O4/1UeDaSUCCCBQoICGKqIgUIyAPXGs3p7qCauAVCV+YjsKL8PlxdQdbmu/SEk+xRxuw3sEKiEwcL9PRU/nb1+JqnPWufTaa3Kut5XqjWfBooJDBXaVKtU8VqXOoRHr1ZC8CmjVo/LSQw+JQ9lSzrWcdZVy/HCfwaeeGj2wMjBc1OP31754do/roAIEEChO4INjznZbbTSxuJ2ybF3IvYp61NlDdRqpRD0L05alBXvJBxHVDE0/0Lpp59Di4c+78c+6XSOqaFsFnDavfLg+/Pk178/ORdan4+Y7l7At9uCk/Wyt/a3YOvsc7qdl5hnum/HQYrSN/dxvbqGJ1Wuvto3/HNxLJI+r9cl6wmvq14cPd0b3H+G52HGs/do+PIZta9fGjpWtJ6V5a3oLu96qk4JAbwiU617lxC/O643mc8waF/jI5MHu8H3K+/N4jZ9y1ub1VkCpBhFSZr0szb3CQspPffLjzQ3B2SOAQMMJHLL+zoY7J06oPAL6RUD7pGOjXzzc5TQslYrdoGvI3ly/1ElbV0yr7Dj8IqAYNbYtl8DjffZwi1s2Lld1BddzyJzXCtq2msFhNY9V0MmzUSyguTfVc7KnQbXVoyF+1fO0N8vfNhvj1vTpW9YmzNvpL2Wtj8oQQCC/wPBZu7n+y0bm37CALbhXKQCJTboJxIEkD092s2FB/QuU617l94++t/4xOIOyC7x7y1lu283mlr3eclc4YsQIt8/73utaCxhBqJRj92ZAqfbmHxeplLNin7oXGDZ0qHvmuefd+V/8St2fCyeAAAIIhALTvr53+JH3CGQIaD4amyszY0X0FPGaV/4eD+Vr6zRviz1prYBTT7IXW/RLhf7bHeDnLl0XhaMWkBZbD9sjUKrAD6//mXv85aWl7l7yftPOOb3kfdmx+QROjoaLnb98uQ8qNX9lKQHjHS+84PfXMMEaXra3y9e+cblbuGJlWZvxuSnvK2t9VIYAAvkFfvqLm9yMxxbl37CALbhXKQCJTboJ6P6h31Z7+R6x/aNpJdZHU1BoeopSih6e7DNopO/ZWcpUJKUck30QyCVQrnuVvf+LB7lyOTfruj/ecaeb89KtdXH6U2650b17px3L3tbeDih1QvSkLPtlbYwKp/3zX+6lmS83xslwFggggEAgcCg9KQMN3iYFLHAMl4fDJoXLeY9Aowg81ks9KQ+lJ2WjfIU4jxIF1JNydZl7Us6nJ2WJV4PdEChdYFgZe1Jyr1L6dWBPFz88Wer9S9wjMxqS14aIxRWB3hYo173K/6MnZW9fypo8vnpSjq/xnpR/ueted9/9D7jf/vKnbvfddimrYy0ElDohQsqyXlYqQwABBBCodYFC5nmp9XOgfQgggEA5Bco1z0uxbSp0Tspi62V7BOpFgDkp6+VK0U4EcgtUe07K3K1hLQIIINBYAuW6V2FOysb6XpTrbOphTsrLr7za/eC6n5Y9pHzt9dnuhFPOcLPnzHWfPucsd97ZZ5aLteh6+hS9BzsggAACCCCAAAIIIIAAAggggAACCCCAAAIIIIAAAggggEBdCdRSQCk4Qsq6+vrQWAQQQAABBBBAAAEEEEAAAQQQQAABBBBAAAEEEEAAAQSKE6i1gFKtby3uFNgaAQTKJrDq3rJVRUUINIPA6reXuT4D9nD9Bo5thtPlHBFAAAEEEEAAAQQQQAABBBBAAAEEEEAAgbIIhAHlZ84925171hllqbenldCTsqeC7I8AAgggUBWBjo717s2Zt7i1K2ZX5XgcBAEEEEAAAQQQQAABBBBAAAEEEEAAAQQQqHeBWg0o5UpIWe/fLtqPAAIINJHAhvVrOoPKlQSVTXTZOVUEEEAAAQQQQAABBBBAAAEEEEAAAQQQKEGglgNKnQ4hZQkXlV0QQAABBHpPwAeVM6IelQSVvXcRODICCCCAAAIIIIAAAggggAACCCCAAAII1LRArQeUwiOkrOmvEI1DAAEEEEgTeCeonJO2mmUIIIAAAggggAACCCCAAAIIIIAAAggggEDTCiigPP7kM9zsOXNdLc1BmbwghJRJET4jgAACCNSFQGdQ+duoRyVBZV1cMBqJAAIIIIAAAggggAACCCCAAAIIIIAAAhUXsIByztzaDigFQUhZ8a8DB0AAAQQQqJQAQWWlZKkXAQQQQAABBBBAAAEEEEAAAQQQQAABBOpNoJ4CStm21hsw7UUAAQQQQCAUsKByk/Efdv0GjAlX8R4BBBBAAAEEEEAAAQQQQAABBBBAoMkFvv7JjZtcgNNPExg+pG/a4rpeVm8BpbAJKev6K0fjEUAAAQQkYEHlyPHHudYBo3OiDJ58cc71rEQAAQSaTqC1velOmRNGAAEEEECgFgU2OvCCWmwWbUIAAQR6TaClfWhZjr3N2H5lqYdKEKhlgXoMKOVJSFnL3yrahgACCCBQsICCygUzbnb5gsqWAcMLrpMNEUAAAQQQQAABBBBAAIFqCfQdvmW1DsVxEEAAAQQQQKCBBOo1oNQlYE7KBvoicioIIIBAswtYULl25Zxmp+D8EUAAAQQQQAABBBBAAAEEEEAAAQQQQKDBBeo5oNSloSdlg39BOT0E6lng6h/82T3+5Az3vStOdcOGblTPp5La9lWr1rqvX3aLX/flzx/r2tv7uWqe8xNPzXRnnvNDd933P+F222VcahvrcaGCyoUzb3EjxmmOytxDv9bj+dFmBBBAoFEE2vfe27l+/RvldDgPBIoTWLsmuhtn2LHi0NgaAQQQQAABBBBAAAEEQoF6Dyh1LoSU4RXlPQIIFCzw8ivz3bmf/Ymb+8Ziv8/ozYa7q7/9MbfN1psWXEctbWiB4euzFzVkKKrw8415i52FodW2n3L7Y+62Kf9w//e8I9yXLvq1++qFx6UGo/a9OuzgSe7csw4vuZnr162OgsrfElSWLMiOCCCAQOUF+k/apfIH4QgINJnAh7b4fJOdMaeLQO8LDOpXnvnSev9MaAECCCCAAAII1JNAIwSU8iakrKdvHW1FoEYEFDh97dJbMnrgLXnrbffLmx5wZ5x6sO8RWI6m9iSkKvb4zz7/mvvL3dP8bn978Dl31BF7FFtFWbavxDkrgFVAmSzqPfnEw99KLi77ZwWPt/6/qT6YVIitgPIrF9/cLdRWO6+/4R7/HSqHP0Fl2S8lFSKAAAIIIIBAjQts2s58djV+iWgeAggggAACCCCAAAI9FggDyv973tnunE+c0eM6e6sCQsrekue4CNSpgIKkRx9/0Z1y4gEZPeE0HGslArZqMT0ydbpTb9CNhw/y56eefBp+ldJzgdv//ITbY7dt4162Ckflq+Xhd2bV6jVOPVmPPmpE6kFb+7e7YaO2Sl2Xa+G6ZY9Ew74ek2sT1iGAAAIIIIAAAggggAACCCCAAAIIIIAAAjUv0EgBpbAJKWv+K0cDm13A5g286orT3B13Phn39vuPQyZ1G7rThiy1HoHhEKw2jKZ6OlovNfV+/NTnfuY2H7txRl25hga1IGmzUcNzXhprt+Y7VAB4w6/+6rcP26QF1ma9f/dOW7nLr5zi7Nx+/LN7MuaktDpLsZi445buoyfs5y648FcZPUB1XDlo7kvZbD52hO/lp2Fsk0PX2nyR1hPwmedmafe4vRZqWjvznbvfOfGXHSM5D6f1XtXmSUO7jtYenavtb22xw+i7Yb7qPZo2J6V9V2woX+2bnLfS2nne2ZNjL233v184Nv5+6bPqeuyJl3zvSX22svdeE9xV197h7Qudb1Qhpf5QEEAAAQQQQAABBBBAAAEEEEAAAQQQQACBZhNotIBS169Ps11EzheBehW49Irfu9NPOdgPz/m7Gz/nnv7Xq04hnpUw7Hv43kv8dgrdNG+kgiIFWzu/eys367U3bRe3ePHbbuGiZb73msJHFdWjoUH33H271J6E7W39faip0FEBWL6iEEyBlIYVVbvUhosu+a0Pp8J9FZ4teHOp3+6Si05IPbZtn89Cod3Hz/2R39wsLvrSh92V3/+TVZHxquFd5fCeiVu58eNGuREbD/a9/DI26vqgIFBDlSoE1DmlXQvbr9Bzt+3TXnU9vnTRTX4+x3vv+Ep8zBkvv+E313oNs2vt0fkqdL78u1P8tVSvRS1TMKk/ep/LV9f0Qx+5woeKOj/9UUCpc1FQGhZZ3DZlqjfQdgooNQxw+L345zOvui02H+G/f+G+claZMXNeuJj3CCCAAAIIIIAAAggggAACCCCAAAIIIIAAAgmBRgwodYqElIkLzUcEalVAgaP17NOrhstU7z8Fcip33jPNB5cKMq1H3wf23dEHbgqKtEy9H8N9tFzDmyqgs7BIvedee32hD+zSLFTP+Z85yqm3noKrk8/4ftyGtO0VXCkoU7F99V7BYFisp2O4LNv7fBYWOoYWMtN+yaKQT8PXylPbqFff0Ue9N8Mp3EdhrwJP6/2nfdSzUv4Kg8NS6LmH+yTf23UNjynHgw94j99U7zVkqrVHn48+ai//XQh7QibrTfus75J6NyaH8tX107Lbpvwj41rLIjTW903XUT1nrSgU1/dO7QqLhd2vz14YLuY9AggggAACCCCAAAIIIIAAAggggAACCCCAQCAw6/XZ7viTT3dz5s519T4HZXBa/i0hZVKEzwjUqICGIQ3LlltsEn+0oE29FBUcWbEgyHpPqkejAkn1oFTR8smH7ep7N1pYtGjxctfS0uKGD9/Iqun2qkDs5z8+x/ecU2+6gyZ/1ff2UzuSJdnuZJtse/X+07pCSrLOQixUb3I/LbNQ9ojDd9NHX9SjMgxubble1csyaaOgV0V2YUkeL9u5h/sk3+saJa9rcpvws3o7KjzWeSXbE26X9l5Bta6nvifJkvzuaH3Sws7P9tX3Qb1yw+tj6xRaKry076aWW1BuvSxtW14RQAABBBBAAAEEEEAAAQQQQAABBBBAAIFmFfjOVddEAeUbDRdQ6noyJ2Wzfqs574YQsMBx9Gad4Z6GTLX5KMMT1DCfCoxsKFP1oFTQ9uKMuU7h3IAB/ePehOoFt/uu4+OeeWE9yfea21J/bL7E12cviudCTG6b/KzwKi3UTG5X6OekRVrvvbS6ZKG5GTXEabJoKNOddtiiWy/A5Hb/v717j7WrqvMAvpog1gEDBSIYaFUqcayohZZHNEpI6yCdJp0BkQQ1UKGOEigzsTNCACmvlGiJgRJ1RClmkMhUGJt0QEIb1IgW+uAparA8CkQgtFdCmVyqSae/Leuw7+l9nH3Pbdln389O2vPaa+21Puv+981vrfw5gt5cNZq/G+y107nnkG+4ubSfRxnVm3l71sGePdJ3EXLn0LX93hx8RvXocFen8yv3EVvExja6y649u6O/vXJb7wkQIECAAAECBAgQIECAAAECBAgQINBUgaYGlLFeQsqm/tWa17gUiC05Y+vPoa6oXosAMqrXopry3Yfs36q8XPPzR4utPCNgiu1Cq1wRVEbVYFTwRTVcJ0FdDt7GMqgsjzkHZe3bjJbviYAvtjCNYC/mUL5yaBbB3EihXG7XXjmZv29/rTr34eYS51HGFedV5i1fy2dCtj97pM/DBZHDBZgj9TvS7/E3E9vmxnmlcb5mnstI7fxOgAABAgQIECBAgAABAgQIECBAgACBJgq866C/7abYtC1ey2tlu9eyhvcEelQggrhjZx4x5DmK5WnF1psRet2/7om07z7vKKoEo6rylVf+L/38l78tzqMcqpKu3E/7+2hT3mo2/563kc2fIwR7+NFnBt1SNN/TzWveRjSqOvtf3z6gq/JZifFDBKpRgRnbu7Zfuep01V0bBvyUKzbLX0Y1Zmx92r5Nabdzz+saXuHWfuVKy/atctuf295uqM8x/vYzJfO9YVdl29lol9eivKVr7i+PvbwVbPbL277me70SIECAAAECBAgQIECAAAECBAgQIEBgvAl89jP/nO753/9J5315QWOnLqRs7NKa2HgTOOET04opf/NbK1vbqEYQtGTpHempp19qcUQg9+xzW9Kdd29sBYVRtRYVlvet/X2afNiBg4aNuYOoPly46KYBfcZvEeYNFtTduHx1695oG5VyEXbFNqq764otbCNMLFtEdeHNt9w74JHDBW/ZZP3GTUWFaW4YYeH3b17dMo5+r1iyYmf16XG7VP+NxdxjXcM13MIvrljX1fc+UoSAEU6XQ8w8njzeeM1h4WDBbfm+mHPMI5zK1ZjZLipso68qVw7FY8zlKwLkGE+n1afltt4TIECAAAECBAgQIECAAAECBAgQIECg6QLvmDgxTX3fexs9Tdu9Nnp5TW48CUTAFNtkXrBoefr4rIuLqUdlY5zxV96uNL6LIDIColy5Fjd/7PgPFOFUbH06XBAVz7ni0tOL5zz2+OYWcWw1+8Mbz2t9zm/+9bx/LAK2fG+cj3nphcM/I7cd7WvMN+Z9/ld/0LKI8ZXPaozg9u7VD6UF82cPOd9sUt7CNioNTzzhyFa/McbBtouN78di7uH9n8v+JV15zYo0a87l0W0RIsf84jpp9vTiPNF8pmb4Xr/0i0WQXNzwxn9fOOOTRaVt9JHXoPx7fl/eujd/F38zP/nRogF/R/m3kV4jFL/9p2uLStDy32Guliz/DY7Ul98JECBAgAABAgQIECBAgAABAgQIECBAoDkCE3bsvJozHTMh0EMC/Wt6aLDVhxrVd3FGZQSDnZxRWf0J1VvEmC676rZdgttOe1r2nbuKoG+kMxPrOPdO5zjW90UFZQSsUfFZPvczLOMqn6EalaIRsi88d87Y/81MnDXWU9MfAQIECBAgQIAAAQIECBAgQIAAAQIECHQhYLvXLvA0JUCgtwSG2961t2bSO6ONqtxzzppdVFPmbYfjdd2GP6bYlrd8TXz73ju3fz1gZ5XvlvLX3hMgQIAAAQIECBAgQIAAAQIECBAgQIBAAwWElA1cVFMiMN4FIgSLszjL5yCuXLWu2M52NOcqjnfPbucf27ye+k/HF9v+Pvzo08U2vPG5vP1rPCMHmnGWZ6607PbZ2hMgQIAAAQIECBAgQIAAAQIECBAgQIBAPQWcSVnPdTEqAgS6EIjw6x9mTR9wbmQ35yp2MRRN3xCIrV7zdq+rbr9oSJdYu+F+H7KhHwgQIECAAAECBAgQIECAAAECBAgQIECgpwScSdlTy2WwjRJo+JmUjVork+l9AWdS9v4amgEBAgQIECBAgAABAgQIECBAgAABAo0SsN1ro5bTZAgQIECAAAECBAgQIECAAAECBAgQIECAAAECBAjUX0BIWf81MkICBAgQIECAAAECBAgQIECAAAECBAgQIECAAAECjRIQUjZqOU2GAAECBAgQIECAAAECBAgQIECAAAECBAgQIECAQP0FhJT1XyMjJFA7gf7+v6SLF99a/Iv3w13LvnNXOnPBDenPr7w23G0Dftvw4JNpxsf/I8VrXFWeN6AjHwgQIECAAAECBAgQIECAAAECBAgQIECAAIFaCggpa7ksBkVgbAUiIIygcOWqdQM6js9zT12Snnr6pQHfj+bDUM8YTV+90ib8qgawMbcIbiPkHSng7RUH4yRAgAABAgQIECBAgAABAgQIECBAgAABAlUF9qrawP0ECPSeQF/fa2nL1lfHbOATJ74tXb34jAH9DfWM879y8oD7RvNhsOeNpp+xbBPB7u0/XZsuv+T0tP9++1TqesH82enKa1akG5evTmPhU+nhbiZAgAABAgQIECBAgAABAgQIECBAgAABAjUQUElZg0UwBAIEek9g1V0b0jEz3p/e9953VR58hK7nnDU7rdvwxzGpYq08AA0IECBAgAABAgQIECBAgAABAgQIECBAgMBbLKCS8i1eAI8n0IlAbCt6xZIVxa3vPmRSWnbt2QPCsTi78UvnfbfV1VmfP7FVoRdbi958y73Fb9FH/Pv6RaeleXOPad2f38T2o1HhF9eck45OCxfdlH9K37vhy2nGUYcXn8v3XXrhaUVF4FDPiOev37gpXbd0fqviMLaGvWDR8vTY45uL/o6cNmXA762HvvGm/Xl/eqEvnf/VH6R4bb/K44xqx/J9n/7U9BTjjZAwrjy2L5zxyfS1S25J5XG0m7b3GwFjVFGO9op1nHzYgemRx55prWVe5/KzRtu/dgQIECBAgAABAgQIECBAgAABAgQIECBAoM4CQso6r46xEdgpEMHVHSvvT2vuvKwI+SKw+9VvftcKtnKYloOtHABGABdbica/uSfPKMK62GZ0sHCyHfpn9zyUDjl4Utpw3zeKn6Kvy666bZdwNLer8owY/3/d+stWKJkDyG9+a+WAADH3PdhrVC+uuv2i1k95zjOPntoKUnNAmeecnxMhbDmojKD03l88lu5bc3UrvAzTmO9PfrSo5bz63keKMyQj4IxgMQLGCBpHe0U/x848Ij2w/ol00uzprWePtj/tCBAgQIAAAQIECBAgQIAAAQIECBAgQIBALwnY7rWXVstYx53A9u1/LUKsww49IE18+97F/CPcmn3iR4r3Ec5d/+07U1RO5irHOB/xlHnHFdWL8ftorqgojOrCfEXIGVeEc91eMf4INfM5jvH5lHnHp4cffWbQyshOnhehZ1x5zBFIfv/m1emjH35PEQDGb0M9J4LG2Ho1fs/Xr9f+IR14wDvTpElvnjUZ5vmezc++XIS4+XNuV/X1sEMPTM89vzX1v769aBoBcgTDeS2r9ud+AgQIECBAgAABAgQIECBAgAABAgQIECDQKwJCyl5ZKeMclwJ7771XEYZFZePdqx/axWDTky8WW6Z+7PgPDPgtwq8tW19NfX2jCynLoWh0HGFdhHa744pK0diqNrZu3dq3rfIjouoxtppdeO6cVvAZfUXoGZWK5SDxgEn7Fv2Xn9MeRsYNUyYfVLjm8LM8qAhAX3ixr7in/P1o3sd4duzYMep1Gs0ztSFAgAABAgQIECBAgAABAgQIECBAgAABAnUQsN1rHVbBGAgMIxDblUYols+TLJ83mZuVz6PM38VrhHGxNepYXVFB2O2Vt2bN51HG+ZixVe1QcxjuebmSNM6a/NAHJ+9yazZr/+G557cMW60YFY0x1wg/41/7WZbt/flMgAABAgQIECBAgAABAgQIECBAgAABAgQIVBMQUlbzcjeBPS4QlYBXLz6j+BdnQ0ZoFqFlnKsYV2xXuuzas8c0jNydk8zVifmMzXhWVEOO5oq+omJ08cWfHVAxmfvK53Tmz1Ve83meUekZYWdsy3rd0vmtbXer9OVeAgQIECBAgAABAgQIECBAgAABAgQIECBAYKCA7V4HevhEoNYCEZxF5WE+x3Dq4QcX27COxVmRe2LieavU9u1ko7Kx6vXU0y8VW+BGpWl7tWgEt3EeZZwt2e0VVZURdubtcyM0PuTgSUWlZbd9R6XrhAkTBpx92W2f2hMgQIAAAQIECBAgQIAAAQIECBAgQIAAgV4QEFL2wioZ47gV2L79r+nHK+5LEe7lK7YhzSHf/vvtk06Zd1xR6VeuRoz3UXWZr3ym5Fhs15r7bH/t5BkR8MU5kXFeZJwbGVeMNSoVq1zh8f2bVxdB5Emzp+/SNJ5zyrzji6rTqITMVwSbS5beMcAz/1Z+DfPYSjZfEaKWz66MMyujmrW8LuE999QlKZ4RV/lz9HXmghvSxYtvHdAm+s1rGW3CotxHfOciQIAAAQIECBAgQIAAAQIECBAgQIAAAQJNFLDdaxNX1ZwaI7D33nul4445In3mc0tboV77+YhR6RdX+UzH9nMrI8xceO6c4p7YLjaqMXO7scLq9BkRKj6w/oliTvHsmM/1S7+YFi66qeOh3L36ofSzex4q7s+vuXGe24yjDm+ddZlD0Ha73Kb99dP/MD1dsGh5yudmHjltSrHVa8wxro8c+Z50+0/XFmvSXsXZ3tdQnyPgDIcIbSNUjSsqP6MCNCpBXQQIECBAgAABAgQIECBAgAABAgQIECBAoMkCE3bsvJo8QXMjUFuB/jW1HZqBDS8QAeOV16woAsbRhr1RcXnZVbelyy85vdiudiz6HH7U4/zXibPGOYDpEyBAgAABAgQIECBAgAABAgQIECBAoF4Ctnut13oYDQECPSAQlY/nnDW7qKbM27tWHfaquzakY2a8v3WeZv/r29Or2/qLKs2qfbmfAAECBAgQIECAAAECBAgQIECAAAECBAj0moBKyl5bMeNtjoBKyp5fyzjv8o6V9w/YCraTScV5les3bqrcrpO+3TOEgErKIWB8TYAAAQIECBAgQIAAAQIECBAgQIAAgbdGQEj51rh7KoGUhJT+CgjsOQEh5Z6z9iQCBAgQIECAAAECBAgQIECAAAECBAh0IGC71w6Q3EKAAAECBAgQIECAAAECBAgQIECAAAECBAgQIECAwNgJCCnHzlJPBAgQIECAAAECBAgQIECAAAECBAgQIECAAAECBAh0ICCk7ADJLQQIDC8QZyyeueCG9OdXXhv+Rr8SIECAAAECBAgQIECAAAECBAgQIECAAAECBHYKCCn9GRAg0BJYuWrdLmFjBI8RQEYQOVbXU0+/lOaeuiRtePDJseryLeknTC5efGvq7/9Lx8+Pe6PNWHp2/HA3EiBAgAABAgQIECBAgAABAgQIECBAgACBmggIKWuyEIZBoA4Cm599eVTDOP8rJ6cf3nhe2n+/fTpqv7VvW/rTC30d3VvXmyJgXb9xU/r3f5uXJk58W8fDjHujTbSNUNhFgAABAgQIECBAgAABAgQIECBAgAABAgTGo4CQcjyuujkTINCVQFRD3rFybTpl3nEdB7PlB0aYu/DcOTv7uN8WuWUY7wkQIECAAAECBAgQIECAAAECBAgQIEBg3AjsNW5maqIEGi4Q27JesGh5euzxzcVMz/r8iSkqHPMVwdqV16xIP7vnoeKrdx8yKS279uz0vve+K8X2q+d/9Qet6sZZcy5PR06bkq5bOj83H/Y1ti6NysC4P1dTRpXgFUtWDHhWPLM8hi+d993i9+/d8OU046jDi/fR18233Nt6Xvm3PIf4cc5JR6eFi24a9L78ZVQ75mfEd+0medxfOOOT6WuX3NKac8xhsPGHVVy//d2z6bnnt+6siJxWfB7Nf1MPP7hotunJFwfM/e7VD7XWZTT9akOAAAECBAgQIECAAAECBAgQIECAAAECBHpBQEjZC6tkjARGEMgBZVT2xbarcT3+++eK8DGCtXK4d9+aq4vtSSOEi2AyB5Wrbr+oOCexPWyMvqte0XdUCa6587IitIzn/8FBpcIAABTbSURBVOo3vysC0asXn7GzAvH4IjwsB5DxjBwa5nY5ZGy/L4LWQw6elDbc941iaNHusqtua80lvmxvm43i3nJ4G6Huvb94LGWXaDvc+OP3X6/9Q5p59NRWIBvfVb0iCI0+oq8c0Fbtw/0ECBAgQIAAAQIECBAgQIAAAQIECBAgQKBXBWz32qsrZ9wESgJRjRdh22GHHtj6dtrfH1aEgvFFVOc9/Ogz6ZyzZrfOTzzhE9PSgQe8Mz3y2DOtNmPxJgLJB9Y/sXMsB6SJb9+76DLOYZx94keG7T5CxaigjG1QczXmhz44OX36U9OLIK/cOKo8o/oxX3NPnlG8zXOJQPL6b99ZVE7mADD6jBA3Qthy8BrVnWWXkcYfv7/wYl+aMvmg/PhRv0Yf0Vf0GVeEpxEW54rNUXesIQECBAgQIECAAAECBAgQIECAAAECBAgQqLmAkLLmC2R4BDoROGDSvinCtgjmygFctM2h20c//J7intxfBIgRJG5+9uX81Zi8RiAZVY5R7RjhaKdXVBRG+Ji3QY12ua9ykBfflwPQ+Dxp0j5F4Brv48qh7ceO/8Dfvnjj/whxt2x9NfX1vVkdGkFttM9XfuZQ4+9/fXux1Ws5EM5tq75GH7FtbPTpIkCAAAECBAgQIECAAAECBAgQIECAAAEC40nAdq/jabXNtbECUXl3+SWnF1uoxnmS5fMm86QjdIt/7VdUKkaQGeHcWF0L5s8uKgTjTMr4134W5FDPiWrQGH/7FeFlBHm5MrP99/y5PXAtn0eZ74nXrX3bhq1WHO34y8/wngABAgQIECBAgAABAgQIECBAgAABAgQIEBhaQEg5tI1fCPSUQGxrGmc0PvX0S8VZk5/53NIUZznGlqlxdRoUjsWkI/CMsyfjX5wBGdu4RjXkpReeNmwYGoHpcPfkbVE7GeNgQW0n7eKe4cbfaR/uI0CAAAECBAgQIECAAAECBAgQIECAAAECBIYWsN3r0DZ+IdCTAlFVectNC4utU597fksRuB0784hdzmLcU5OLcxa/ftFpI25rGluzxrmZf3qhr+uhxZaxY3XeZvv48za5YdvtFX20b13bbZ/aEyBAgAABAgQIECBAgAABAgQIECBAgACBXhAQUvbCKhkjgREENjz4ZIp/+YozF+PsxXxu4gmfmFb89M1vrSy2do0PUZW4ZOkdReVlbjdl8kG7nNmYf+v0Nfr98Yr7Ws+JdrENazmMy2doloO+qPiMczMXX/3fA87VjErM8tw6Gcf+++2TTpl3XLHVbLltvI/+hrtGGn8+s7J9a9nod+6pSwrPOBf0zAU3pIsX31o4tH/Oz48+4vzOvNXuylXrinbt54rm+70SIECAAAECBAgQIECAAAECBAgQIECAAIGmCNjutSkraR7jWiC2eo2QrHwGY2z1Gt/HFaHddUvnpwsWLU8fn3Vx8d1g26GeNHt6emD9Eym2io1zIKNNvmLL1vhXvqJCct7cY8pfFYHbccccUfSRqyLbt3GNas849zGfWZnHGlu9XnnNigHnUubfBjykgw95XGWTTra8jcBwpPFH1ef1376zCFPDdjRXBJHrN25KC8+dUzSPcDTsZx49tViv0fSpDQECBAgQIECAAAECBAgQIECAAAECBAgQ6BWBCTt2Xr0yWOMk0CiB/jWNms54mkwEjBH4RsCYg+Cq84+qzgg6IwiOoHMs+qw6hnF1/8RZ42q6JkuAAAECBAgQIECAAAECBAgQIECAAIG6C9jute4rZHwECNROIELFCChzNWXVAUbV5B0r1xZb0uZKzNiid7/9/i7FeZouAgQIECBAgAABAgQIECBAgAABAgQIECDQdAGVlE1fYfOrr4BKyvquTYcjiy12X3ixL8U2tflcyZGaRkAZW9rGVaXdSP36fQQBlZQjAPmZAAECBAgQIECAAAECBAgQIECAAAECe1ZASLlnvT2NwJsCQso3LbwjsLsFhJS7W1j/BAgQIECAAAECBAgQIECAAAECBAgQqCRgu9dKXG4mQIAAAQIECBAgQIAAAQIECBAgQIAAAQIECBAgQKBbASFlt4LaEyBAgAABAgQIECBAgAABAgQIECBAgAABAgQIECBQSUBIWYnLzQQIECBAgAABAgQIECBAgAABAgQIECBAgAABAgQIdCsgpOxWUHsCBAgQIECAAAECBAgQIECAAAECBAgQIECAAAECBCoJCCkrcbmZAAECBAgQIECAAAECBAgQIECAAAECBAgQIECAAIFuBYSU3QpqT4AAAQIECBAgQIAAAQIECBAgQIAAAQIECBAgQIBAJQEhZSUuNxMgQIAAAQIECBAgQIAAAQIECBAgQIAAAQIECBAg0K2AkLJbQe0JECBAgAABAgQIECBAgAABAgQIECBAgAABAgQIEKgkIKSsxOVmAgQIECBAgAABAgQIECBAgAABAgQIECBAgAABAgS6FRBSdiuoPQECBAgQIECAAAECBAgQIECAAAECBAgQIECAAAEClQSElJW43EyAAAECBAgQIECAAAECBAgQIECAAAECBAgQIECAQLcCQspuBbUnQIAAAQIECBAgQIAAAQIECBAgQIAAAQIECBAgQKCSgJCyEpebCRAgQIAAAQIECBAgQIAAAQIECBAgQIAAAQIECBDoVkBI2a2g9gQIECBAgAABAgQIECBAgAABAgQIECBAgAABAgQIVBIQUlbicjMBAgQIECBAgAABAgQIECBAgAABAgQIECBAgAABAt0KCCm7FdSeAAECBAgQIECAAAECBAgQIECAAAECBAgQIECAAIFKAkLKSlxuJkCAAAECBAgQIECAAAECBAgQIECAAAECBAgQIECgWwEhZbeC2hMgQIAAAQIECBAgQIAAAQIECBAgQIAAAQIECBAgUElASFmJy80ECBAgQIAAAQIECBAgQIAAAQIECBAgQIAAAQIECHQrIKTsVlB7AgQIECBAgAABAgQIECBAgAABAgQIECBAgAABAgQqCQgpK3G5mQABAgQIECBAgAABAgQIECBAgAABAgQIECBAgACBbgWElN0Kak+AAAECBAgQIECAAAECBAgQIECAAAECBAgQIECAQCUBIWUlLjcTIECAAAECBAgQIECAAAECBAgQIECAAAECBAgQINCtgJCyW0HtCRAgQIAAAQIECBAgQIAAAQIECBAgQIAAAQIECBCoJCCkrMTlZgIECBAgQIAAAQIECBAgQIAAAQIECBAgQIAAAQIEuhUQUnYrqD2B3SiwbVt/OnPBDWnZd+7ajU/RNQECBAgQIECAAAECBAgQIECAAAECBAgQIEBgzwoIKfest6cRqCSw774T03VL56f1GzelDQ8+WamtmwkQIECAAAECBAgQIECAAAECBAgQIECAAAECdRUQUtZ1ZYyLwBsC+++3T5p59NT03PNbmBAgQIAAAQIECBAgQIAAAQIECBAgQIAAAQIEGiEgpGzEMprEeBDY/OzL42Ga5kiAAAECBAgQIECAAAECBAgQIECAAAECBAiMAwEh5ThYZFMkQIAAAQIECBAgQIAAAQIECBAgQIAAAQIECBAgUCcBIWWdVsNYCBAgQIAAAQIECBAgQIAAAQIECBAgQIAAAQIECIwDASHlOFhkU+x9gSmTD0ovvNiX+vv/0vuTMQMCBAgQIECAAAECBAgQIECAAAECBAgQIEBg3AsIKcf9nwCAXhCYN/eYdOzMI9KV16wQVPbCghkjAQIECBAgQIAAAQIECBAgQIAAAQIECBAgMKyAkHJYHj8SqIfAylXr0gPrn0iXXnhamjjxbfUYlFEQIECAAAECBAgQIECAAAECBAgQIECAAAECBEYpIKQcJZxmBPakwOZnX06HHDxJQLkn0T2LAAECBAgQIECAAAECBAgQIECAAAECBAgQ2G0CQsrdRqtjAgQIECBAgAABAgQIECBAgAABAgQIECBAgAABAgQGExBSDqbiOwIECBAgQIAAAQIECBAgQIAAAQIECBAgQIAAAQIEdpuAkHK30eqYwNgKTJl80Nh2qDcCBAgQIECAAAECBAgQIECAAAECBAgQIECAwFskIKR8i+A9lkCnAn9+5bW0fuOmdNihB3baxH0ECBAgQIAAAQIECBAgQIAAAQIECBAgQIAAgVoLCClrvTwGN94Ftm3rTxcsWp5mHj01zTjq8PHOYf4ECBAgQIAAAQIECBAgQIAAAQIECBAgQIBAQwQm7Nh5NWQupkGgtwT61/TWeI2WQC8LTJzVy6M3dgIECBAgQIAAAQIECBAgQIAAAQIECDROQCVl45bUhAgQIECAAAECBAgQIECAAAECBAgQIECAAAECBAjUW0BIWe/1MToCBAgQIECAAAECBAgQIECAAAECBAgQIECAAAECjRMQUjZuSU2IAAECBAgQIECAAAECBAgQIECAAAECBAgQIECAQL0FhJT1Xh+jI0CAAAECBAgQIECAAAECBAgQIECAAAECBAgQINA4ASFl45bUhAgQIECAAAECBAgQIECAAAECBAgQIECAAAECBAjUW0BIWe/1MToCBAgQIECAAAECBAgQIECAAAECBAgQIECAAAECjRMQUjZuSU2IAAECBAgQIECAAAECBAgQIECAAAECBAgQIECAQL0FhJT1Xh+jI0CAAAECBAgQIECAAAECBAgQIECAAAECBAgQINA4gQk7dl6Nm5UJESBAgAABAgQIECBAgAABAgQIECBAgAABAgQIECBQWwGVlLVdGgMjQIAAAQIECBAgQIAAAQIECBAgQIAAAQIECBAg0EwBIWUz19WsCBAgQIAAAQIECBAgQIAAAQIECBAgQIAAAQIECNRWQEhZ26UxMAIECBAgQIAAAQIECBAgQIAAAQIECBAgQIAAAQLNFBBSNnNdzYoAAQIECBAgQIAAAQIECBAgQIAAAQIECBAgQIBAbQWElLVdGgMjQIAAAQIECBAgQIAAAQIECBAgQIAAAQIECBAg0EwBIWUz19WsCBAgQIAAAQIECBAgQIAAAQIECBAgQIAAAQIECNRWQEhZ26UxMAIECBAgQIAAAQIECBAgQIAAAQIECBAgQIAAAQLNFBBSNnNdzYoAAQIECBAgQIAAAQIECBAgQIAAAQIECBAgQIBAbQWElLVdGgMjQIAAAQIECBAgQIAAAQIECBAgQIAAAQIECBAg0EwBIWUz19WsCBAgQIAAAQIECBAgQIAAAQIECBAgQIAAAQIECNRWQEhZ26UxMAIECBAgQIAAAQIECBAgQIAAAQIECBAgQIAAAQLNFBBSNnNdzYoAAQIECBAgQIAAAQIECBAgQIAAAQIECBAgQIBAbQWElLVdGgMjQIAAAQIECBAgQIAAAQIECBAgQIAAAQIECBAg0EwBIWUz19WsCBAgQIAAAQIECBAgQIAAAQIECBAgQIAAAQIECNRWQEhZ26UxMAIECBAgQIAAAQIECBAgQIAAAQIECBAgQIAAAQLNFBBSNnNdzYoAAQIECBAgQIAAAQIECBAgQIAAAQIECBAgQIBAbQWElLVdGgMjQIAAAQIECBAgQIAAAQIECBAgQIAAAQIECBAg0EwBIWUz19WsCBAgQIAAAQIECBAgQIAAAQIECBAgQIAAAQIECNRWQEhZ26UxMAIECBAgQIAAAQIECBAgQIAAAQIECBAgQIAAAQLNFBBSNnNdzYoAAQIECBAgQIAAAQIECBAgQIAAAQIECBAgQIBAbQWElLVdGgMjQIAAAQIECBAgQIAAAQIECBAgQIAAAQIECBAg0EwBIWUz19WsCBAgQIAAAQIECBAgQIAAAQIECBAgQIAAAQIECNRWQEhZ26UxMAIECBAgQIAAAQIECBAgQIAAAQIECBAgQIAAAQLNFBBSNnNdzYoAAQIECBAgQIAAAQIECBAgQIAAAQIECBAgQIBAbQWElLVdGgMjQIAAAQIECBAgQIAAAQIECBAgQIAAAQIECBAg0EwBIWUz19WsCBAgQIAAAQIECBAgQIAAAQIECBAgQIAAAQIECNRWQEhZ26UxMAIECBAgQIAAAQIECBAgQIAAAQIECBAgQIAAAQLNFBBSNnNdzYoAAQIECBAgQIAAAQIECBAgQIAAAQIECBAgQIBAbQWElLVdGgMjQIAAAQIECBAgQIAAAQIECBAgQIAAAQIECBAg0EwBIWUz19WsCBAgQIAAAQIECBAgQIAAAQIECBAgQIAAAQIECNRWQEhZ26UxMAIECBAgQIAAAQIECBAgQIAAAQIECBAgQIAAAQLNFBBSNnNdzYoAAQIECBAgQIAAAQIECBAgQIAAAQIECBAgQIBAbQWElLVdGgMjQIAAAQIECBAgQIAAAQIECBAgQIAAAQIECBAg0EwBIWUz19WsCBAgQIAAAQIECBAgQIAAAQIECBAgQIAAAQIECNRWQEhZ26UxMAIECBAgQIAAAQIECBAgQIAAAQIECBAgQIAAAQLNFBBSNnNdzYoAAQIECBAgQIAAAQIECBAgQIAAAQIECBAgQIBAbQWElLVdGgMjQIAAAQIECBAgQIAAAQIECBAgQIAAAQIECBAg0EwBIWUz19WsCBAgQIAAAQIECBAgQIAAAQIECBAgQIAAAQIECNRWQEhZ26UxMAIECBAgQIAAAQIECBAgQIAAAQIECBAgQIAAAQLNFBBSNnNdzYoAAQIECBAgQIAAAQIECBAgQIAAAQIECBAgQIBAbQWElLVdGgMjQIAAAQIECBAgQIAAAQIECBAgQIAAAQIECBAg0EwBIWUz19WsCBAgQIAAAQIECBAgQIAAAQIECBAgQIAAAQIECNRWQEhZ26UxMAIECBAgQIAAAQIECBAgQIAAAQIECBAgQIAAAQLNFBBSNnNdzYoAAQIECBAgQIAAAQIECBAgQIAAAQIECBAgQIBAbQWElLVdGgMjQIAAAQIECBAgQIAAAQIECBAgQIAAAQIECBAg0EwBIWUz19WsCBAgQIAAAQIECBAgQIAAAQIECBAgQIAAAQIECNRWQEhZ26UxMAIECBAgQIAAAQIECBAgQIAAAQIECBAgQIAAAQLNFBBSNnNdzYoAAQIECBAgQIAAAQIECBAgQIAAAQIECBAgQIBAbQWElLVdGgMjQIAAAQIECBAgQIAAAQIECBAgQIAAAQIECBAg0EyB/wcFJKe6pXkGjwAAAABJRU5ErkJggg==;" vertex="1" parent="1">
          <mxGeometry x="-440" y="180" width="1833" height="321" as="geometry" />
        </mxCell>
      </root>
    </mxGraphModel>
  </diagram>
</mxfile>
